<svg width="1902" height="670" viewBox="0 0 1902 670" fill="none" xmlns="http://www.w3.org/2000/svg">
<ellipse cx="526.158" cy="131.5" rx="135.5" ry="131.5" fill="url(#paint0_linear_19_16)"/>
<ellipse cx="536.158" cy="187.5" rx="135.5" ry="131.5" fill="#E1BBFF"/>
<ellipse cx="82.7417" cy="80.2991" rx="82.7417" ry="80.2991" transform="matrix(0.273232 -0.961948 -0.961948 -0.273232 733.487 262.067)" fill="url(#paint1_linear_19_16)"/>
<ellipse cx="82.7417" cy="80.2991" rx="82.7417" ry="80.2991" transform="matrix(-0.812196 -0.583384 -0.583384 0.812196 761.754 150.54)" fill="#E1BBFF"/>
<ellipse cx="135.5" cy="131.5" rx="135.5" ry="131.5" transform="matrix(-0.339267 -0.94069 -0.94069 0.339267 911.343 363.927)" fill="url(#paint2_linear_19_16)"/>
<ellipse cx="135.5" cy="131.5" rx="135.5" ry="131.5" transform="matrix(-1 0 0 1 837.658 161)" fill="#E1BBFF"/>
<ellipse cx="72.1525" cy="70.0226" rx="72.1525" ry="70.0226" transform="matrix(-0.70491 -0.709297 -0.709297 0.70491 634.658 264.355)" fill="url(#paint3_linear_19_16)"/>
<ellipse cx="72.1525" cy="70.0226" rx="72.1525" ry="70.0226" transform="matrix(-0.977954 -0.208822 -0.208822 0.977954 776.172 261.134)" fill="url(#paint4_linear_19_16)"/>
<ellipse cx="78.4419" cy="85.0079" rx="78.4419" ry="85.0079" transform="matrix(-0.554544 0.832155 0.832155 0.554544 499.657 162)" fill="#E1BBFF"/>
<ellipse cx="58.8766" cy="57.1385" rx="58.8766" ry="57.1385" transform="matrix(-0.989759 0.142745 0.142745 0.989759 497.744 149.06)" fill="url(#paint5_linear_19_16)"/>
<ellipse cx="64.0088" cy="69.3666" rx="64.0088" ry="69.3666" transform="matrix(0.33718 0.94144 0.94144 -0.33718 365 187.665)" fill="#E1BBFF"/>
<ellipse cx="78.4419" cy="85.0079" rx="78.4419" ry="85.0079" transform="matrix(-0.00968491 0.999953 0.999953 0.00968491 607.178 249.186)" fill="#E1BBFF"/>
<ellipse cx="72.1525" cy="70.0226" rx="72.1525" ry="70.0226" transform="matrix(-0.977954 -0.208822 -0.208822 0.977954 989.172 240.134)" fill="url(#paint6_linear_19_16)"/>
<ellipse cx="78.4419" cy="85.0079" rx="78.4419" ry="85.0079" transform="matrix(-0.00968491 0.999953 0.999953 0.00968491 820.178 228.186)" fill="#E1BBFF"/>
<ellipse cx="229.553" cy="195.36" rx="135.5" ry="131.5" transform="rotate(14.3596 229.553 195.36)" fill="url(#paint7_linear_19_16)"/>
<ellipse cx="225.352" cy="252.09" rx="135.5" ry="131.5" transform="rotate(14.3596 225.352 252.09)" fill="#E1BBFF"/>
<ellipse cx="82.7417" cy="80.2991" rx="82.7417" ry="80.2991" transform="matrix(0.503266 -0.864132 -0.864132 -0.503266 398.023 373.267)" fill="url(#paint8_linear_19_16)"/>
<ellipse cx="82.7417" cy="80.2991" rx="82.7417" ry="80.2991" transform="matrix(-0.642139 -0.766589 -0.766589 0.642139 453.066 272.235)" fill="#E1BBFF"/>
<ellipse cx="135.5" cy="131.5" rx="135.5" ry="131.5" transform="matrix(-0.0953699 -0.995442 -0.995442 0.0953699 545.06 516.054)" fill="url(#paint9_linear_19_16)"/>
<ellipse cx="135.5" cy="131.5" rx="135.5" ry="131.5" transform="matrix(-0.968758 -0.248007 -0.248007 0.968758 524.005 301.192)" fill="#E1BBFF"/>
<ellipse cx="72.1525" cy="70.0226" rx="72.1525" ry="70.0226" transform="matrix(-0.506977 -0.86196 -0.86196 0.506977 301.714 350.974)" fill="url(#paint10_linear_19_16)"/>
<ellipse cx="72.1525" cy="70.0226" rx="72.1525" ry="70.0226" transform="matrix(-0.895611 -0.444838 -0.444838 0.895611 439.605 382.949)" fill="url(#paint11_linear_19_16)"/>
<ellipse cx="78.4419" cy="85.0079" rx="78.4419" ry="85.0079" transform="matrix(-0.743599 0.668626 0.668626 0.743599 196.315 218.335)" fill="#E1BBFF"/>
<ellipse cx="58.8766" cy="57.1385" rx="58.8766" ry="57.1385" transform="matrix(-0.994239 -0.107182 -0.107182 0.994239 197.671 205.324)" fill="url(#paint12_linear_19_16)"/>
<ellipse cx="64.0088" cy="69.3666" rx="64.0088" ry="69.3666" transform="matrix(0.0931618 0.995651 0.995651 -0.0931618 59.4999 209.802)" fill="#E1BBFF"/>
<ellipse cx="78.4419" cy="85.0079" rx="78.4419" ry="85.0079" transform="matrix(-0.257378 0.966311 0.966311 0.257378 278.854 329.462)" fill="#E1BBFF"/>
<ellipse cx="72.1525" cy="70.0226" rx="72.1525" ry="70.0226" transform="matrix(-0.895611 -0.444838 -0.444838 0.895611 651.159 415.431)" fill="url(#paint13_linear_19_16)"/>
<ellipse cx="78.4419" cy="85.0079" rx="78.4419" ry="85.0079" transform="matrix(-0.257378 0.966311 0.966311 0.257378 490.408 361.944)" fill="#E1BBFF"/>
<ellipse cx="135.5" cy="131.5" rx="135.5" ry="131.5" transform="matrix(-1 0 0 1 1510.53 72)" fill="url(#paint14_linear_19_16)"/>
<ellipse cx="135.5" cy="131.5" rx="135.5" ry="131.5" transform="matrix(-1 0 0 1 1500.53 128)" fill="#E1BBFF"/>
<ellipse cx="1222.33" cy="232.533" rx="82.7417" ry="80.2991" transform="rotate(-105.857 1222.33 232.533)" fill="url(#paint15_linear_19_16)"/>
<ellipse cx="1253.48" cy="239.489" rx="82.7417" ry="80.2991" transform="rotate(-35.6889 1253.48 239.489)" fill="#E1BBFF"/>
<ellipse cx="1159.51" cy="353.077" rx="135.5" ry="131.5" transform="rotate(-70.1678 1159.51 353.077)" fill="url(#paint16_linear_19_16)"/>
<ellipse cx="1199.03" cy="364.5" rx="135.5" ry="131.5" fill="#E1BBFF"/>
<ellipse cx="1367.06" cy="334.538" rx="72.1525" ry="70.0226" transform="rotate(-45.1777 1367.06 334.538)" fill="url(#paint17_linear_19_16)"/>
<ellipse cx="1210.2" cy="386.546" rx="72.1525" ry="70.0226" transform="rotate(-12.0533 1210.2 386.546)" fill="url(#paint18_linear_19_16)"/>
<ellipse cx="1374.29" cy="346.416" rx="78.4419" ry="85.0079" transform="rotate(56.3207 1374.29 346.416)" fill="#E1BBFF"/>
<ellipse cx="1453.56" cy="286.017" rx="58.8766" ry="57.1385" transform="rotate(8.20671 1453.56 286.017)" fill="url(#paint19_linear_19_16)"/>
<ellipse cx="1449.3" cy="296.536" rx="64.0088" ry="69.3666" transform="rotate(109.705 1449.3 296.536)" fill="#E1BBFF"/>
<ellipse cx="1209.76" cy="400.447" rx="78.4419" ry="85.0079" transform="rotate(89.4451 1209.76 400.447)" fill="#E1BBFF"/>
<ellipse cx="997.198" cy="365.546" rx="72.1525" ry="70.0226" transform="rotate(-12.0533 997.198 365.546)" fill="url(#paint20_linear_19_16)"/>
<ellipse cx="996.764" cy="379.447" rx="78.4419" ry="85.0079" transform="rotate(89.4451 996.764 379.447)" fill="#E1BBFF"/>
<ellipse cx="135.5" cy="131.5" rx="135.5" ry="131.5" transform="matrix(-0.968758 0.248007 0.248007 0.968758 1770.29 106.363)" fill="url(#paint21_linear_19_16)"/>
<ellipse cx="135.5" cy="131.5" rx="135.5" ry="131.5" transform="matrix(-0.968758 0.248007 0.248007 0.968758 1774.49 163.094)" fill="#E1BBFF"/>
<ellipse cx="1530.91" cy="333.356" rx="82.7417" ry="80.2991" transform="rotate(-120.216 1530.91 333.356)" fill="url(#paint22_linear_19_16)"/>
<ellipse cx="1562.81" cy="332.369" rx="82.7417" ry="80.2991" transform="rotate(-50.0485 1562.81 332.369)" fill="#E1BBFF"/>
<ellipse cx="1499.95" cy="465.713" rx="135.5" ry="131.5" transform="rotate(-84.5274 1499.95 465.713)" fill="url(#paint23_linear_19_16)"/>
<ellipse cx="1541.06" cy="466.979" rx="135.5" ry="131.5" transform="rotate(-14.3596 1541.06 466.979)" fill="#E1BBFF"/>
<ellipse cx="1696.41" cy="396.281" rx="72.1525" ry="70.0226" transform="rotate(-59.5373 1696.41 396.281)" fill="url(#paint24_linear_19_16)"/>
<ellipse cx="1557.35" cy="485.566" rx="72.1525" ry="70.0226" transform="rotate(-26.4129 1557.35 485.566)" fill="url(#paint25_linear_19_16)"/>
<ellipse cx="1706.36" cy="405.995" rx="78.4419" ry="85.0079" transform="rotate(41.9611 1706.36 405.995)" fill="#E1BBFF"/>
<ellipse cx="1768.18" cy="327.823" rx="58.8766" ry="57.1385" transform="rotate(-6.1529 1768.18 327.823)" fill="url(#paint26_linear_19_16)"/>
<ellipse cx="1766.66" cy="339.07" rx="64.0088" ry="69.3666" transform="rotate(95.3455 1766.66 339.07)" fill="#E1BBFF"/>
<ellipse cx="1560.38" cy="499.14" rx="78.4419" ry="85.0079" transform="rotate(75.0855 1560.38 499.14)" fill="#E1BBFF"/>
<ellipse cx="1345.8" cy="518.048" rx="72.1525" ry="70.0226" transform="rotate(-26.4129 1345.8 518.048)" fill="url(#paint27_linear_19_16)"/>
<ellipse cx="1348.82" cy="531.622" rx="78.4419" ry="85.0079" transform="rotate(75.0855 1348.82 531.622)" fill="#E1BBFF"/>
<defs>
<linearGradient id="paint0_linear_19_16" x1="646.158" y1="18" x2="414.158" y2="121.5" gradientUnits="userSpaceOnUse">
<stop offset="0.288133" stop-color="white"/>
<stop offset="1" stop-color="white" stop-opacity="0"/>
</linearGradient>
<linearGradient id="paint1_linear_19_16" x1="156.018" y1="10.9915" x2="14.35" y2="74.1927" gradientUnits="userSpaceOnUse">
<stop offset="0.288133" stop-color="white"/>
<stop offset="1" stop-color="white" stop-opacity="0"/>
</linearGradient>
<linearGradient id="paint2_linear_19_16" x1="255.5" y1="18" x2="23.5" y2="121.5" gradientUnits="userSpaceOnUse">
<stop offset="0.288133" stop-color="white"/>
<stop offset="1" stop-color="white" stop-opacity="0"/>
</linearGradient>
<linearGradient id="paint3_linear_19_16" x1="100.477" y1="-22.8379" x2="63.0441" y2="117.634" gradientUnits="userSpaceOnUse">
<stop offset="0.288133" stop-color="white"/>
<stop offset="1" stop-color="white" stop-opacity="0"/>
</linearGradient>
<linearGradient id="paint4_linear_19_16" x1="100.477" y1="-22.8379" x2="63.0441" y2="117.634" gradientUnits="userSpaceOnUse">
<stop offset="0.288133" stop-color="white"/>
<stop offset="1" stop-color="white" stop-opacity="0"/>
</linearGradient>
<linearGradient id="paint5_linear_19_16" x1="81.9893" y1="-18.6358" x2="51.4441" y2="95.9898" gradientUnits="userSpaceOnUse">
<stop offset="0.288133" stop-color="white"/>
<stop offset="1" stop-color="white" stop-opacity="0"/>
</linearGradient>
<linearGradient id="paint6_linear_19_16" x1="100.477" y1="-22.8379" x2="63.0441" y2="117.634" gradientUnits="userSpaceOnUse">
<stop offset="0.288133" stop-color="white"/>
<stop offset="1" stop-color="white" stop-opacity="0"/>
</linearGradient>
<linearGradient id="paint7_linear_19_16" x1="349.552" y1="81.8599" x2="117.553" y2="185.36" gradientUnits="userSpaceOnUse">
<stop offset="0.288133" stop-color="white"/>
<stop offset="1" stop-color="white" stop-opacity="0"/>
</linearGradient>
<linearGradient id="paint8_linear_19_16" x1="156.018" y1="10.9915" x2="14.35" y2="74.1927" gradientUnits="userSpaceOnUse">
<stop offset="0.288133" stop-color="white"/>
<stop offset="1" stop-color="white" stop-opacity="0"/>
</linearGradient>
<linearGradient id="paint9_linear_19_16" x1="255.5" y1="18" x2="23.5" y2="121.5" gradientUnits="userSpaceOnUse">
<stop offset="0.288133" stop-color="white"/>
<stop offset="1" stop-color="white" stop-opacity="0"/>
</linearGradient>
<linearGradient id="paint10_linear_19_16" x1="100.477" y1="-22.8379" x2="63.0441" y2="117.634" gradientUnits="userSpaceOnUse">
<stop offset="0.288133" stop-color="white"/>
<stop offset="1" stop-color="white" stop-opacity="0"/>
</linearGradient>
<linearGradient id="paint11_linear_19_16" x1="100.477" y1="-22.8379" x2="63.0441" y2="117.634" gradientUnits="userSpaceOnUse">
<stop offset="0.288133" stop-color="white"/>
<stop offset="1" stop-color="white" stop-opacity="0"/>
</linearGradient>
<linearGradient id="paint12_linear_19_16" x1="81.9893" y1="-18.6358" x2="51.4441" y2="95.9898" gradientUnits="userSpaceOnUse">
<stop offset="0.288133" stop-color="white"/>
<stop offset="1" stop-color="white" stop-opacity="0"/>
</linearGradient>
<linearGradient id="paint13_linear_19_16" x1="100.477" y1="-22.8379" x2="63.0441" y2="117.634" gradientUnits="userSpaceOnUse">
<stop offset="0.288133" stop-color="white"/>
<stop offset="1" stop-color="white" stop-opacity="0"/>
</linearGradient>
<linearGradient id="paint14_linear_19_16" x1="255.5" y1="18" x2="23.5" y2="121.5" gradientUnits="userSpaceOnUse">
<stop offset="0.288133" stop-color="white"/>
<stop offset="1" stop-color="white" stop-opacity="0"/>
</linearGradient>
<linearGradient id="paint15_linear_19_16" x1="1295.61" y1="163.226" x2="1153.94" y2="226.427" gradientUnits="userSpaceOnUse">
<stop offset="0.288133" stop-color="white"/>
<stop offset="1" stop-color="white" stop-opacity="0"/>
</linearGradient>
<linearGradient id="paint16_linear_19_16" x1="1279.51" y1="239.577" x2="1047.51" y2="343.077" gradientUnits="userSpaceOnUse">
<stop offset="0.288133" stop-color="white"/>
<stop offset="1" stop-color="white" stop-opacity="0"/>
</linearGradient>
<linearGradient id="paint17_linear_19_16" x1="1395.38" y1="241.677" x2="1357.95" y2="382.149" gradientUnits="userSpaceOnUse">
<stop offset="0.288133" stop-color="white"/>
<stop offset="1" stop-color="white" stop-opacity="0"/>
</linearGradient>
<linearGradient id="paint18_linear_19_16" x1="1238.52" y1="293.685" x2="1201.09" y2="434.157" gradientUnits="userSpaceOnUse">
<stop offset="0.288133" stop-color="white"/>
<stop offset="1" stop-color="white" stop-opacity="0"/>
</linearGradient>
<linearGradient id="paint19_linear_19_16" x1="1476.67" y1="210.243" x2="1446.13" y2="324.869" gradientUnits="userSpaceOnUse">
<stop offset="0.288133" stop-color="white"/>
<stop offset="1" stop-color="white" stop-opacity="0"/>
</linearGradient>
<linearGradient id="paint20_linear_19_16" x1="1025.52" y1="272.686" x2="988.09" y2="413.158" gradientUnits="userSpaceOnUse">
<stop offset="0.288133" stop-color="white"/>
<stop offset="1" stop-color="white" stop-opacity="0"/>
</linearGradient>
<linearGradient id="paint21_linear_19_16" x1="255.5" y1="18" x2="23.5" y2="121.5" gradientUnits="userSpaceOnUse">
<stop offset="0.288133" stop-color="white"/>
<stop offset="1" stop-color="white" stop-opacity="0"/>
</linearGradient>
<linearGradient id="paint22_linear_19_16" x1="1604.19" y1="264.048" x2="1462.52" y2="327.249" gradientUnits="userSpaceOnUse">
<stop offset="0.288133" stop-color="white"/>
<stop offset="1" stop-color="white" stop-opacity="0"/>
</linearGradient>
<linearGradient id="paint23_linear_19_16" x1="1619.95" y1="352.213" x2="1387.95" y2="455.713" gradientUnits="userSpaceOnUse">
<stop offset="0.288133" stop-color="white"/>
<stop offset="1" stop-color="white" stop-opacity="0"/>
</linearGradient>
<linearGradient id="paint24_linear_19_16" x1="1724.73" y1="303.42" x2="1687.3" y2="443.893" gradientUnits="userSpaceOnUse">
<stop offset="0.288133" stop-color="white"/>
<stop offset="1" stop-color="white" stop-opacity="0"/>
</linearGradient>
<linearGradient id="paint25_linear_19_16" x1="1585.67" y1="392.706" x2="1548.24" y2="533.178" gradientUnits="userSpaceOnUse">
<stop offset="0.288133" stop-color="white"/>
<stop offset="1" stop-color="white" stop-opacity="0"/>
</linearGradient>
<linearGradient id="paint26_linear_19_16" x1="1791.29" y1="252.049" x2="1760.74" y2="366.674" gradientUnits="userSpaceOnUse">
<stop offset="0.288133" stop-color="white"/>
<stop offset="1" stop-color="white" stop-opacity="0"/>
</linearGradient>
<linearGradient id="paint27_linear_19_16" x1="1374.12" y1="425.187" x2="1336.69" y2="565.66" gradientUnits="userSpaceOnUse">
<stop offset="0.288133" stop-color="white"/>
<stop offset="1" stop-color="white" stop-opacity="0"/>
</linearGradient>
</defs>
</svg>