<svg width="70" height="70" viewBox="0 0 70 70" fill="none" xmlns="http://www.w3.org/2000/svg">
<rect width="70" height="70" rx="35" fill="#E1BBFF"/>
<g clip-path="url(#clip0_0_263)">
<path d="M27.6653 18.4676C27.1669 18.3963 27.1431 18.3726 27.3805 18.3489C27.8315 18.2777 28.8758 18.3726 29.6117 18.5388C31.3206 18.9423 32.8635 19.9866 34.5012 21.8143L34.9285 22.3128L35.5456 22.2178C38.1803 21.7906 40.8862 22.1229 43.1411 23.1672C43.7582 23.4521 44.7314 24.0217 44.85 24.1641C44.8975 24.2116 44.9687 24.5202 45.0162 24.8287C45.1824 25.9443 45.1111 26.7751 44.7551 27.416C44.5652 27.772 44.5652 27.8669 44.6839 28.1755C44.7788 28.4129 45.0637 28.579 45.3248 28.579C45.8944 28.579 46.4878 27.677 46.7726 26.419L46.8913 25.9206L47.1049 26.158C48.3155 27.5109 49.2649 29.386 49.4073 30.7152L49.4548 31.0713L49.2412 30.7627C48.8851 30.2168 48.5528 29.8607 48.1019 29.5522C47.2948 29.0063 46.4403 28.8401 44.1854 28.7214C42.1442 28.6027 40.9811 28.4366 39.8418 28.0568C37.8955 27.4159 36.8986 26.5852 34.5962 23.5233C33.5755 22.1703 32.9347 21.4345 32.2938 20.8174C30.8934 19.4645 29.493 18.7524 27.6653 18.4676Z" fill="#52003B"/>
<path d="M45.3483 21.4819C45.3958 20.5799 45.5144 19.9865 45.7755 19.4406C45.8705 19.227 45.9654 19.0371 45.9892 19.0371C46.0129 19.0371 45.9654 19.2033 45.8942 19.3931C45.7043 19.9153 45.6806 20.6511 45.7993 21.4819C45.9654 22.55 46.0366 22.6924 47.176 23.8555C47.6981 24.4014 48.3153 25.0897 48.5526 25.3746L48.9561 25.8968L48.5526 25.517C48.0542 25.0423 46.9149 24.1403 46.6538 24.0216C46.4876 23.9267 46.4639 23.9267 46.3452 24.0454C46.2503 24.1403 46.2265 24.2827 46.2265 24.9711C46.2028 26.0392 46.0604 26.7038 45.7043 27.3921C45.5144 27.7482 45.4907 27.6769 45.6569 27.2734C45.7755 26.9649 45.7993 26.8225 45.7993 25.8018C45.7993 23.7368 45.5619 23.2383 44.114 22.4076C43.758 22.194 43.1409 21.8854 42.7848 21.7193C42.4051 21.5531 42.1202 21.4107 42.144 21.4107C42.1914 21.3632 43.5918 21.7667 44.1378 22.0041C44.9685 22.3364 45.1109 22.3601 45.2059 22.3364C45.2771 22.2652 45.3246 22.0753 45.3483 21.4819Z" fill="#52003B"/>
<path d="M28.6391 25.0186C27.6422 23.642 27.0014 21.5057 27.1438 19.9154L27.1912 19.417L27.4286 19.4645C27.8559 19.5357 28.5917 19.8205 28.9477 20.0341C29.8971 20.6038 30.3244 21.3871 30.7279 23.3334C30.8466 23.9031 31.0127 24.5677 31.0839 24.7813C31.2026 25.1373 31.6536 25.9681 32.0334 26.4903C32.2944 26.87 32.1283 27.0599 31.5349 27.0125C30.6329 26.9175 29.4224 26.0868 28.6391 25.0186Z" fill="#52003B"/>
<path d="M44.1385 35.3437C39.4388 33.4449 37.7773 31.8071 37.7773 29.03C37.7773 28.6265 37.8011 28.2942 37.8011 28.2942C37.8248 28.2942 37.991 28.4366 38.2046 28.6028C39.154 29.3623 40.2221 29.6946 43.1891 30.1218C44.9218 30.3829 45.9187 30.5728 46.8207 30.8814C49.6927 31.8308 51.4729 33.7772 51.9002 36.4118C52.0188 37.1714 51.9476 38.6193 51.7577 39.3788C51.5916 39.9722 51.1169 41.0641 50.9982 41.0878C50.9745 41.0878 50.927 40.9691 50.927 40.7792C50.8795 39.7823 50.3811 38.8329 49.5503 38.0971C48.5534 37.2426 47.2717 36.6017 44.1385 35.3437Z" fill="#52003B"/>
<path d="M40.8155 36.1269C40.768 35.7708 40.6493 35.3198 40.5781 35.13L40.4595 34.7739L40.6731 35.035C40.9816 35.3911 41.219 35.8183 41.4326 36.4117C41.5988 36.8627 41.5988 37.0051 41.5988 37.7409C41.5988 38.453 41.575 38.6191 41.4326 39.0226C41.1953 39.6635 40.9104 40.1145 40.4357 40.6129C39.5812 41.4912 38.4656 41.9659 36.8753 42.1795C36.5905 42.2032 35.7835 42.2744 35.0714 42.3219C33.2912 42.4169 32.1044 42.6067 31.0363 42.9865C30.8939 43.034 30.7515 43.0815 30.7278 43.0577C30.6803 43.0103 31.4161 42.583 32.0095 42.2982C32.8403 41.8947 33.6947 41.681 35.5699 41.3487C36.4956 41.2063 37.445 41.0164 37.6824 40.9215C40.0322 40.1857 41.1953 38.358 40.8155 36.1269Z" fill="#52003B"/>
<path d="M42.9748 39.9483C42.3577 38.5953 42.2153 37.3136 42.5476 36.1031C42.5951 35.9844 42.6425 35.8657 42.69 35.8657C42.7375 35.8657 42.8799 35.9369 43.0223 36.0319C43.3071 36.2218 43.9005 36.5541 45.4196 37.3848C47.3422 38.4292 48.4341 39.2362 49.1936 40.1619C49.8582 40.9689 50.2617 41.8946 50.4516 43.0339C50.5703 43.6748 50.4991 45.2176 50.3329 45.8585C49.8108 47.876 48.624 49.4901 46.8912 50.4158C46.6302 50.5582 46.4165 50.6531 46.3928 50.6531C46.3691 50.6531 46.464 50.4158 46.6064 50.1309C47.1761 48.9204 47.2473 47.7574 46.82 46.4519C46.5589 45.6449 46.013 44.6717 44.9212 43.0339C43.6157 41.1351 43.3071 40.6366 42.9748 39.9483Z" fill="#52003B"/>
<path d="M25.2914 47.2114C27.0479 45.7398 29.2078 44.6954 31.2016 44.3631C32.0561 44.2207 33.4803 44.2682 34.2636 44.4818C35.5216 44.8141 36.6609 45.5262 37.2543 46.4044C37.8239 47.2589 38.085 47.9947 38.3461 49.6325C38.4411 50.2734 38.5597 50.938 38.5835 51.0804C38.7734 51.9349 39.1531 52.5995 39.6279 52.9555C40.3637 53.5014 41.6454 53.5252 42.9034 53.0505C43.117 52.9792 43.3069 52.908 43.3069 52.9318C43.3544 52.9792 42.7135 53.4065 42.2863 53.6201C41.6929 53.9287 41.2181 54.0236 40.5773 54.0236C39.438 54.0236 38.4648 53.4302 37.6815 52.2434C37.5154 52.0061 37.1831 51.3177 36.8982 50.6769C36.0675 48.7543 35.6402 48.1846 34.6671 47.5437C33.8126 46.9978 32.7207 46.8791 31.89 47.2826C30.7981 47.8048 30.5133 49.2052 31.2728 50.0597C31.5814 50.4158 32.1511 50.7006 32.6258 50.7718C33.504 50.8905 34.2636 50.2022 34.2636 49.3239C34.2636 48.7543 34.0499 48.422 33.4803 48.1609C32.7207 47.8286 31.89 48.2083 31.9137 48.9442C31.9137 49.2527 32.0561 49.4426 32.3647 49.585C32.5546 49.68 32.5546 49.68 32.4122 49.6562C31.7238 49.5138 31.5577 48.6593 32.1036 48.1134C32.7682 47.4488 34.1686 47.7336 34.6433 48.6593C34.8332 49.0391 34.857 49.7986 34.6908 50.2734C34.2873 51.3177 33.148 51.8637 31.9849 51.5551C31.2016 51.3415 30.8693 51.1279 29.9199 50.1547C28.2584 48.4457 27.6175 48.1134 25.2439 47.7574L24.793 47.6862L25.2914 47.2114Z" fill="#52003B"/>
<path fill-rule="evenodd" clip-rule="evenodd" d="M12.8061 9.02064C18.3366 15.7379 26.8577 26.1816 27.285 26.7513C27.641 27.226 27.4986 27.677 26.9052 28.0093C26.5729 28.1992 25.8846 28.3891 25.5522 28.3891C25.1725 28.3891 24.7215 28.1992 24.4129 27.8906C24.1993 27.677 23.2736 26.324 21.1849 23.0722C19.5946 20.58 18.2416 18.515 18.2179 18.4912C18.1229 18.4438 18.1229 18.4438 21.0187 23.6182C22.8464 26.87 23.4398 28.033 23.4398 28.1754C23.4398 28.484 23.3448 28.6502 22.965 29.0774C22.3242 29.7895 22.0394 30.5965 21.8257 32.2817C21.5884 34.1569 20.9475 35.4861 19.1198 37.741C18.0517 39.0702 17.8856 39.3075 17.6245 39.8535C17.2922 40.5181 17.1972 40.8978 17.1498 41.7523C17.1023 42.6543 17.1972 43.2239 17.4583 44.0784C17.6957 44.838 17.9568 45.3364 18.5977 46.3096C19.1436 47.1641 19.4759 47.805 19.4759 48.0423C19.4759 48.2322 19.5234 48.2322 20.3778 48.0423C22.4191 47.5676 24.1044 46.7606 25.0301 45.7637C25.5997 45.1465 25.7421 44.8142 25.7421 43.9598C25.7421 43.4138 25.7184 43.2952 25.576 42.9628C25.3386 42.4407 24.8876 42.0134 23.9145 41.3488C22.6327 40.4706 22.0868 39.7585 21.9444 38.8091C21.8257 38.0021 21.9681 37.4561 22.6802 35.9608C23.416 34.418 23.6059 33.7771 23.7246 32.2105C23.7958 31.2136 23.9145 30.8101 24.1993 30.5015C24.5079 30.1692 24.769 30.0506 25.5048 29.9556C26.7153 29.7895 27.4986 29.4809 28.1157 28.8875C28.6616 28.3891 28.899 27.8906 28.9227 27.1548L28.9465 26.6089L28.6379 26.2766C27.5223 24.9948 12.0703 8 11.9991 8C11.9754 8 12.3551 8.45098 12.8061 9.02064ZM20.093 42.773C20.3541 42.322 20.2117 41.7523 19.7844 41.4675C19.3809 41.2064 18.7638 41.3251 18.7638 41.6811C18.7638 41.7761 18.8113 41.871 18.9537 41.9185C19.1673 42.0371 19.1911 42.1558 19.0249 42.4169C18.8588 42.678 18.8588 42.9154 19.0724 43.0815C19.4047 43.3426 19.8557 43.2002 20.093 42.773Z" fill="#52003B"/>
<path fill-rule="evenodd" clip-rule="evenodd" d="M29.7061 30.288C29.1364 30.4542 28.5905 31.0713 28.4244 31.6884C28.3294 32.0682 28.3769 32.7565 28.543 32.9701C28.8041 33.3024 29.0415 33.3974 29.7061 33.3974C31.0116 33.3974 32.1272 32.8277 32.2458 32.1394C32.3645 31.5697 31.8661 30.7865 31.1777 30.4304C30.8217 30.2405 30.0859 30.1693 29.7061 30.288ZM31.2252 31.4748C31.4151 31.19 31.3439 30.8814 30.9878 30.6678C30.347 30.2643 29.3738 30.5966 29.3738 31.2137C29.3738 31.5223 29.8723 31.8546 30.347 31.8546C30.6555 31.8546 31.0828 31.6647 31.2252 31.4748Z" fill="#52003B"/>
</g>
<defs>
<clipPath id="clip0_0_263">
<rect width="39.9474" height="46" fill="white" transform="translate(12 8)"/>
</clipPath>
</defs>
</svg>