<svg width="70" height="70" viewBox="0 0 70 70" fill="none" xmlns="http://www.w3.org/2000/svg">
<rect width="70" height="70" rx="35" fill="#E1BBFF"/>
<path fill-rule="evenodd" clip-rule="evenodd" d="M30.9001 19.0806C28.7081 20.2225 26.9147 21.1887 26.9151 21.228C26.9161 21.3295 32.1759 23.9933 32.3626 23.9868C32.4476 23.9839 33.0636 23.7003 33.7316 23.3567L34.9463 22.7319L36.2729 23.4138L37.5994 24.0958L39.7718 23.1196C43.0452 21.6487 43.3852 21.4875 43.3319 21.4334C43.2612 21.3615 42.0871 20.7308 38.9017 19.0537C37.3622 18.2432 35.868 17.4485 35.5811 17.2877C35.2943 17.1269 35.0205 16.9975 34.9727 17C34.9248 17.0025 33.0921 17.9388 30.9001 19.0806ZM21.286 24.0591L19.0041 25.2378V30.4107C19.0041 33.2558 19.0341 35.5835 19.0708 35.5835C19.1075 35.5835 20.2301 35.0968 21.5656 34.502L23.9937 33.4206V27.968L25.1803 28.6145C26.0946 29.1122 27.0095 29.6088 27.9249 30.1045L29.483 30.9481L30.1763 30.6346C30.6111 30.4377 31.0451 30.2388 31.4781 30.038C31.8128 29.8822 32.6343 29.5122 33.3036 29.2157C33.9729 28.919 34.5925 28.6207 34.6803 28.5527C34.7971 28.4624 33.3739 27.676 29.4167 25.6439C26.4338 24.1121 23.8975 22.8636 23.7805 22.8696C23.6636 22.8756 22.541 23.4108 21.286 24.0591ZM43.7432 24.3901C42.1891 25.0917 40.9165 25.6938 40.915 25.7281C40.9137 25.7624 41.7607 26.266 42.7974 26.8471C43.8341 27.4283 44.6823 27.935 44.6823 27.9731C44.6823 28.0112 43.765 28.4557 42.6439 28.961C41.5227 29.4663 38.6887 30.7461 36.346 31.8051L28.4965 35.3532C26.522 36.2458 24.7422 37.0504 24.5414 37.1413C20.5083 38.9671 19.3997 39.4737 19.2475 39.5606C19.0944 39.6482 19.0598 40.1568 19.0325 42.7097L19 45.7546L21.0405 46.7943L23.081 47.834L25.9105 46.557C27.4667 45.8547 28.7399 45.2434 28.7399 45.1983C28.7399 45.1534 28.4524 44.966 28.101 44.7818C27.7495 44.5975 27.024 44.1896 26.4885 43.8751C25.9531 43.5606 25.4192 43.272 25.302 43.2337C25.1848 43.1956 25.0906 43.1288 25.0925 43.0853C25.0945 43.0418 26.3404 42.45 27.8612 41.77C30.8149 40.4494 33.0753 39.4315 37.9281 37.237C40.0981 36.2559 42.2684 35.2754 44.4389 34.2954C46.3465 33.4344 48.5644 32.4288 49.3677 32.0608L50.828 31.3916L50.8605 28.3121L50.8931 25.2327L48.8235 24.1704C47.6852 23.5862 46.7122 23.1097 46.6612 23.1114C46.6102 23.113 45.2971 23.6884 43.7432 24.3901ZM50.2736 35.4998C49.9686 35.6488 49.3662 35.9277 48.9349 36.1196C48.5036 36.3114 47.6852 36.6807 47.1163 36.9403L46.0818 37.4121L46.0582 40.1157C46.0452 41.6026 45.9904 42.8125 45.9365 42.8047C45.8141 42.7865 43.8753 41.7922 41.9265 40.7479C40.5199 39.9943 40.4315 39.9643 40.101 40.128C39.9099 40.2227 38.7678 40.7349 37.563 41.2665C36.3582 41.798 35.3332 42.2675 35.2849 42.31C35.2369 42.3525 37.6617 43.6667 40.6736 45.2307L46.1496 48.0744L48.4889 46.8643C49.7753 46.1988 50.8693 45.5918 50.9197 45.5154C51.0331 45.3438 51.0233 35.2054 50.9098 35.2191C50.8649 35.2245 50.5785 35.3509 50.2736 35.4998ZM37.3196 47.3997C36.9139 47.5742 36.5082 47.7488 36.1026 47.9238C34.878 48.4536 35.118 48.4712 33.661 47.7459C32.6906 47.2628 32.2723 47.1138 32.0908 47.1861C31.9546 47.2404 30.7825 47.7677 29.4859 48.3579C28.1895 48.9481 27.0837 49.431 27.0287 49.431C26.4848 49.431 27.3891 49.9713 30.8787 51.7316L34.9711 53.7958L36.693 52.9457C37.64 52.4781 39.5502 51.5418 40.9379 50.8651C42.3255 50.1882 43.4437 49.6168 43.4228 49.5952C43.4017 49.5738 42.239 48.9767 40.8389 48.2685L38.2932 46.9809L37.3196 47.3997Z" fill="#52003B"/>
</svg>