<svg width="70" height="70" viewBox="0 0 70 70" fill="none" xmlns="http://www.w3.org/2000/svg">
<g clip-path="url(#clip0_0_252)">
<rect width="70" height="70" rx="35" fill="#52003B"/>
<path d="M14.5738 33.2883C14.5738 31.6727 15.9011 30.3455 17.5141 30.3455H22.4734C24.0892 30.3455 25.4725 31.6727 25.4725 33.3471V52.0488C26.0494 51.8752 26.741 51.7016 27.5503 51.528C28.6452 51.2396 29.4545 50.2595 29.4545 49.1031V25.8989C29.4545 24.2833 30.7819 22.8973 32.4536 22.8973H37.4129C39.0287 22.8973 40.4121 24.2245 40.4121 25.8989V47.4315C40.4121 47.4315 41.6246 46.9107 42.8343 46.3926C43.7584 45.9894 44.3353 45.1242 44.3353 44.0826V18.3976C44.3353 16.7819 45.6626 15.3959 47.2784 15.3959H52.2377C53.8535 15.3959 55.1808 16.7231 55.1808 18.3976V39.5829C59.4484 36.4664 63.8337 32.7143 67.2948 28.2118C68.3338 26.8846 68.6222 25.1513 68.0453 23.5357C61.6999 5.29605 41.745 -4.40339 23.5179 1.94717C5.29082 8.29772 -4.39819 28.2678 1.94447 46.5102C2.63614 48.5879 3.56024 50.5507 4.65515 52.4548C5.52044 53.9556 7.13621 54.8208 8.86679 54.6472C9.79088 54.5884 10.9446 54.4736 12.384 54.3C13.6525 54.1852 14.5766 53.0876 14.5766 51.8164L14.5738 33.2883Z" fill="#FFF3D8"/>
<path d="M14.4561 63.305C30.0874 74.6761 51.9492 71.2124 63.31 55.5712C67.6365 49.5679 69.9999 42.3521 69.9999 34.9655C69.9999 34.1563 69.9411 33.3499 69.8851 32.5406C57.141 51.6455 33.5485 60.5917 14.4561 63.305Z" fill="#FFF3D8"/>
</g>
<defs>
<clipPath id="clip0_0_252">
<rect width="70" height="70" rx="35" fill="white"/>
</clipPath>
</defs>
</svg>