<svg width="96" height="96" viewBox="0 0 96 96" fill="none" xmlns="http://www.w3.org/2000/svg">
<rect width="96" height="96" rx="48" fill="#E1BBFF"/>
<g filter="url(#filter0_i_0_172)">
<path d="M25.4404 11.7599C28.8264 10.2261 28.887 18.398 34.0842 21.3393C39.0275 24.1368 44.4245 30.3493 44.4245 30.3493L20.9751 45.4358C20.9751 45.4358 17.7302 40.7156 15.78 32.611C13.8298 24.5064 22.0411 13.9237 25.4404 11.7599Z" fill="#FFF3D8"/>
</g>
<path d="M43.0927 30.1714L21.245 44.2275C21.2264 44.1962 21.2073 44.1639 21.1877 44.1306C20.8642 43.5805 20.4092 42.7585 19.8931 41.6854C18.8605 39.5388 17.5846 36.3909 16.6261 32.4075C15.7298 28.6827 17.1606 24.2573 19.3606 20.3878C20.4489 18.4736 21.7007 16.7398 22.8839 15.3567C24.0495 13.9941 25.1111 13.0159 25.853 12.5293C26.1056 12.4245 26.2615 12.4306 26.3634 12.4556C26.4847 12.4854 26.6461 12.5712 26.8558 12.7934C27.3089 13.2732 27.7382 14.1052 28.3018 15.2546C28.3383 15.329 28.3752 15.4045 28.4126 15.4809C29.4619 17.6261 30.8803 20.5259 33.6556 22.0966C36.0285 23.4395 38.5496 25.6292 40.5031 27.5188C41.4735 28.4575 42.2919 29.3103 42.8672 29.928C42.9472 30.0138 43.0224 30.0951 43.0927 30.1714Z" stroke="#52003B" stroke-width="1.74037"/>
<g filter="url(#filter1_i_0_172)">
<path d="M24.5276 19.2803C26.6466 18.3204 26.6846 23.4347 29.9372 25.2754C33.0309 27.0262 36.4085 30.9142 36.4085 30.9142L21.733 40.3559C21.733 40.3559 19.7023 37.4018 18.4818 32.3297C17.2613 27.2576 22.4002 20.6345 24.5276 19.2803Z" fill="#FF6C6C"/>
</g>
<path d="M35.575 30.8029L21.9019 39.5997C21.8903 39.5801 21.8783 39.5599 21.8661 39.539C21.6637 39.1948 21.3789 38.6803 21.0559 38.0088C20.4096 36.6654 19.6111 34.6952 19.0113 32.2023C18.4503 29.8712 19.3458 27.1016 20.7226 24.6799C21.4037 23.482 22.1872 22.3969 22.9276 21.5313C23.6571 20.6786 24.3215 20.0663 24.7858 19.7618C24.9439 19.6962 25.0415 19.7001 25.1052 19.7157C25.1811 19.7343 25.2821 19.788 25.4134 19.9271C25.6969 20.2274 25.9656 20.7481 26.3183 21.4674C26.3412 21.514 26.3643 21.5612 26.3877 21.6091C27.0444 22.9516 27.9321 24.7664 29.669 25.7494C31.154 26.5898 32.7318 27.9602 33.9544 29.1428C34.5617 29.7303 35.0739 30.264 35.4339 30.6505C35.484 30.7043 35.5311 30.7551 35.575 30.8029Z" stroke="#52003B" stroke-width="1.08919"/>
<g filter="url(#filter2_i_0_172)">
<path d="M70.9523 11.7599C67.5663 10.2261 67.5057 18.398 62.3084 21.3393C57.3652 24.1368 51.9682 30.3493 51.9682 30.3493L75.4176 45.4358C75.4176 45.4358 78.6624 40.7156 80.6126 32.611C82.5629 24.5064 74.3515 13.9237 70.9523 11.7599Z" fill="#FFF3D8"/>
</g>
<path d="M53.3 30.1714L75.1477 44.2275C75.1663 44.1962 75.1854 44.1639 75.205 44.1306C75.5284 43.5805 75.9834 42.7585 76.4996 41.6854C77.5322 39.5388 78.8081 36.3909 79.7666 32.4075C80.6629 28.6827 79.2321 24.2573 77.032 20.3878C75.9437 18.4736 74.6919 16.7398 73.5088 15.3567C72.3432 13.9941 71.2816 13.0159 70.5396 12.5293C70.287 12.4245 70.1311 12.4306 70.0293 12.4556C69.908 12.4854 69.7466 12.5712 69.5368 12.7934C69.0838 13.2732 68.6545 14.1052 68.0909 15.2546C68.0544 15.329 68.0175 15.4045 67.9801 15.4809C66.9308 17.6261 65.5123 20.5259 62.737 22.0966C60.3641 23.4395 57.8431 25.6292 55.8896 27.5188C54.9191 28.4575 54.1008 29.3103 53.5254 29.928C53.4455 30.0138 53.3702 30.0951 53.3 30.1714Z" stroke="#52003B" stroke-width="1.74037"/>
<g filter="url(#filter3_i_0_172)">
<path d="M71.8651 19.2803C69.746 18.3204 69.708 23.4347 66.4554 25.2754C63.3618 27.0262 59.9841 30.9142 59.9841 30.9142L74.6596 40.3559C74.6596 40.3559 76.6904 37.4018 77.9109 32.3297C79.1314 27.2576 73.9924 20.6345 71.8651 19.2803Z" fill="#FF6C6C"/>
</g>
<path d="M60.8176 30.8029L74.4907 39.5997C74.5024 39.5801 74.5143 39.5599 74.5266 39.539C74.729 39.1948 75.0137 38.6803 75.3368 38.0088C75.983 36.6654 76.7815 34.6952 77.3814 32.2023C77.9423 29.8712 77.0469 27.1016 75.67 24.6799C74.9889 23.482 74.2055 22.3969 73.465 21.5313C72.7355 20.6786 72.0712 20.0663 71.6068 19.7618C71.4487 19.6962 71.3512 19.7001 71.2874 19.7157C71.2115 19.7343 71.1105 19.788 70.9792 19.9271C70.6957 20.2274 70.427 20.7481 70.0743 21.4674C70.0515 21.514 70.0284 21.5612 70.005 21.6091C69.3483 22.9516 68.4606 24.7664 66.7237 25.7494C65.2386 26.5898 63.6609 27.9602 62.4383 29.1428C61.831 29.7303 61.3188 30.264 60.9587 30.6505C60.9087 30.7043 60.8616 30.7551 60.8176 30.8029Z" stroke="#52003B" stroke-width="1.08919"/>
<g filter="url(#filter4_i_0_172)">
<path d="M77.7164 70.752C77.7164 70.944 77.3324 71.136 77.1884 71.04L75.0764 69.36C74.6444 70.368 74.1164 71.28 73.4444 72.096C73.3964 72.144 73.3484 72.24 73.3004 72.288C73.3004 72.336 73.3484 72.384 73.3484 72.432C73.7324 73.2 74.2124 73.68 74.7884 74.208C75.1724 74.592 75.5564 74.928 75.8924 75.264C75.9884 75.408 75.7004 75.792 75.5084 75.744L70.8524 74.4C69.8444 75.072 68.6924 75.696 67.3484 76.224C67.1564 76.416 67.0124 76.608 66.8684 76.8C66.5324 77.28 66.4364 77.712 66.3884 78.24C66.3404 78.576 66.2924 78.912 66.2444 79.248C66.1964 79.344 65.7164 79.344 65.6684 79.248L64.2764 77.232C60.2924 78.24 55.0124 78.768 47.9564 78.768C37.2524 78.768 30.5804 77.568 26.4044 75.264C26.1164 75.744 25.9244 76.272 25.7324 76.896C25.5884 77.376 25.3964 77.904 25.2524 78.384C25.1564 78.528 24.7244 78.432 24.6764 78.24L23.9564 73.968L21.8924 73.152L19.2044 72.096C19.0124 72 19.0124 71.568 19.2044 71.52C19.5404 71.472 19.8764 71.424 20.2124 71.424C20.4044 71.424 20.5484 71.376 20.7404 71.376C21.1244 71.328 21.5084 71.28 21.8924 71.184C21.2684 70.176 20.7404 69.12 20.4044 68.016L18.2444 69.456C18.1004 69.552 17.7164 69.312 17.7644 69.12C18.0044 68.64 18.2444 68.208 18.4844 67.728C18.8684 67.008 19.2044 66.384 19.3004 65.568C19.3964 64.752 19.3484 63.936 19.3964 63.12C19.3964 63.024 19.3964 62.928 19.3964 62.832C19.0604 59.712 19.0604 56.112 19.0604 52.032C19.0604 43.152 21.8924 36.384 26.8844 31.872C31.8764 27.312 39.1244 24.96 48.0524 24.96C56.9804 24.96 64.2284 27.36 69.2204 31.872C74.2124 36.384 77.0444 43.152 77.0444 52.032C77.0444 56.208 77.0444 59.856 76.7084 63.072C76.7084 63.6 76.6124 64.176 76.6124 64.704C76.6124 65.52 76.4684 66.336 76.5164 67.152C76.5644 67.968 76.8524 68.592 77.1884 69.36C77.2844 69.792 77.5244 70.272 77.7164 70.752Z" fill="#FFF3D8"/>
</g>
<path d="M77.7164 70.752C77.7164 70.944 77.3324 71.136 77.1884 71.04L75.0764 69.36C74.6444 70.368 74.1164 71.28 73.4444 72.096C73.3964 72.144 73.3484 72.24 73.3004 72.288C73.3004 72.336 73.3484 72.384 73.3484 72.432C73.7324 73.2 74.2124 73.68 74.7884 74.208C75.1724 74.592 75.5564 74.928 75.8924 75.264C75.9884 75.408 75.7004 75.792 75.5084 75.744L70.8524 74.4C69.8444 75.072 68.6924 75.696 67.3484 76.224C67.1564 76.416 67.0124 76.608 66.8684 76.8C66.5324 77.28 66.4364 77.712 66.3884 78.24C66.3404 78.576 66.2924 78.912 66.2444 79.248C66.1964 79.344 65.7164 79.344 65.6684 79.248L64.2764 77.232C60.2924 78.24 55.0124 78.768 47.9564 78.768C37.2524 78.768 30.5804 77.568 26.4044 75.264C26.1164 75.744 25.9244 76.272 25.7324 76.896C25.5884 77.376 25.3964 77.904 25.2524 78.384C25.1564 78.528 24.7244 78.432 24.6764 78.24L23.9564 73.968L21.8924 73.152L19.2044 72.096C19.0124 72 19.0124 71.568 19.2044 71.52C19.5404 71.472 19.8764 71.424 20.2124 71.424C20.4044 71.424 20.5484 71.376 20.7404 71.376C21.1244 71.328 21.5084 71.28 21.8924 71.184C21.2684 70.176 20.7404 69.12 20.4044 68.016L18.2444 69.456C18.1004 69.552 17.7164 69.312 17.7644 69.12C18.0044 68.64 18.2444 68.208 18.4844 67.728C18.8684 67.008 19.2044 66.384 19.3004 65.568C19.3964 64.752 19.3484 63.936 19.3964 63.12C19.3964 63.024 19.3964 62.928 19.3964 62.832C19.0604 59.712 19.0604 56.112 19.0604 52.032C19.0604 43.152 21.8924 36.384 26.8844 31.872C31.8764 27.312 39.1244 24.96 48.0524 24.96C56.9804 24.96 64.2284 27.36 69.2204 31.872C74.2124 36.384 77.0444 43.152 77.0444 52.032C77.0444 56.208 77.0444 59.856 76.7084 63.072C76.7084 63.6 76.6124 64.176 76.6124 64.704C76.6124 65.52 76.4684 66.336 76.5164 67.152C76.5644 67.968 76.8524 68.592 77.1884 69.36C77.2844 69.792 77.5244 70.272 77.7164 70.752Z" stroke="#52003B" stroke-width="1.5265"/>
<path d="M73.2001 68.4232C73.2001 69.3524 73.2 77.5432 47.0401 77.5432C20.8802 77.5432 22.5601 68.6324 22.5601 67.7032C22.5601 67.1901 26.88 75.6001 47.0401 75.3832C67.2002 75.1664 73.2001 67.9101 73.2001 68.4232Z" fill="#BFB6A2"/>
<ellipse cx="47.6407" cy="59.3844" rx="12.5937" ry="6.86928" fill="white"/>
<path d="M47.6404 63.9639C49.7885 63.9639 51.9369 67.3985 51.9369 67.3985H43.3439C43.3439 67.3985 45.4923 63.9639 47.6404 63.9639Z" fill="#52003B"/>
<path d="M47.0179 63.1171C45.6588 66.8547 39.5427 65.8353 38.8631 62.4375" stroke="#A59D8C" stroke-width="1.35913" stroke-linecap="round"/>
<path d="M47.2586 63.2008C45.7321 67.3986 38.8629 66.2538 38.0996 62.4375" stroke="#52003B" stroke-width="1.52651" stroke-linecap="round"/>
<path d="M48.2629 63.1171C49.6221 66.8547 55.7382 65.8353 56.4177 62.4375" stroke="#A59D8C" stroke-width="1.35913" stroke-linecap="round"/>
<path d="M48.0221 63.2008C49.5486 67.3986 56.4179 66.2538 57.1812 62.4375" stroke="#52003B" stroke-width="1.52651" stroke-linecap="round"/>
<path d="M54.1283 58.1234C54.1283 60.6786 51.3945 63.9639 48.0223 63.9639C44.65 63.9639 41.9163 60.6786 41.9163 58.1234C41.9163 56.7121 44.65 55.5681 48.0223 55.5681C51.3945 55.5681 54.1283 56.7121 54.1283 58.1234Z" fill="#52003B"/>
<path d="M52.6015 58.024C52.6015 58.9532 50.5512 57.4764 48.022 57.4764C45.4928 57.4764 43.4424 58.9532 43.4424 58.024C43.4424 57.5108 45.4928 56.3315 48.022 56.3315C50.5512 56.3315 52.6015 57.5108 52.6015 58.024Z" fill="#8D8D8D"/>
<circle cx="44.2057" cy="61.6744" r="0.763253" fill="white"/>
<circle cx="51.8383" cy="61.6744" r="0.763253" fill="white"/>
<path d="M43.4424 67.0168C46.7213 68.0123 48.5594 68.0565 51.8382 67.0168" stroke="#52003B" stroke-width="1.52651" stroke-linecap="round"/>
<path d="M25.2366 49.6556C24.793 51.1095 31.6172 46.2582 36.1174 48.3506C39.0472 49.7128 39.4589 56.357 41.7186 52.319C42.654 47.5686 38.6656 45.5913 35.6983 45.3451C29.6842 44.8463 25.5123 47.0677 25.2366 49.6556Z" fill="#52003B"/>
<path d="M70.2927 49.7826C70.7362 51.2365 63.9121 46.3852 59.4119 48.4775C56.482 49.8398 56.0703 56.484 53.8107 52.4459C52.8752 47.6956 56.8637 45.7182 59.831 45.4721C65.845 44.9733 70.017 47.1947 70.2927 49.7826Z" fill="#52003B"/>
<path d="M49.9198 68.64C49.9198 69.6066 49.6254 70.4632 49.1723 71.0673C48.7193 71.6713 48.1302 72 47.5198 72C46.9095 72 46.3203 71.6713 45.8674 71.0673C45.4143 70.4632 45.1198 69.6066 45.1198 68.64C45.1198 68.3213 45.1023 67.9779 45.0865 67.6677C45.0766 67.4716 45.0672 67.2887 45.0634 67.1336C45.0524 66.6838 45.0789 66.3518 45.1772 66.0986C45.2646 65.8739 45.4184 65.6856 45.7454 65.5407C46.0956 65.3856 46.6484 65.28 47.5198 65.28C48.3913 65.28 48.9441 65.3856 49.2942 65.5407C49.6213 65.6856 49.7751 65.8739 49.8624 66.0986C49.9608 66.3518 49.9872 66.6838 49.9762 67.1336C49.9724 67.2887 49.9631 67.4716 49.9531 67.6677C49.9373 67.9779 49.9198 68.3213 49.9198 68.64Z" fill="#FF6C6C" stroke="#52003B" stroke-width="0.96"/>
<path d="M46.7724 64.5273C46.7537 64.4972 46.7354 64.468 46.7176 64.4399H48.3215C48.3037 64.468 48.2853 64.4972 48.2666 64.5273C48.1027 64.7906 47.9026 65.1337 47.7785 65.4262C47.6706 65.6807 47.5859 65.9777 47.5195 66.2786C47.4531 65.9777 47.3684 65.6807 47.2604 65.4262C47.1364 65.1337 46.9363 64.7906 46.7724 64.5273Z" fill="#52003B" stroke="#52003B" stroke-width="0.48"/>
<defs>
<filter id="filter0_i_0_172" x="15.4844" y="11.5701" width="28.9401" height="33.8657" filterUnits="userSpaceOnUse" color-interpolation-filters="sRGB">
<feFlood flood-opacity="0" result="BackgroundImageFix"/>
<feBlend mode="normal" in="SourceGraphic" in2="BackgroundImageFix" result="shape"/>
<feColorMatrix in="SourceAlpha" type="matrix" values="0 0 0 0 0 0 0 0 0 0 0 0 0 0 0 0 0 0 127 0" result="hardAlpha"/>
<feOffset dx="-1.92" dy="2.88"/>
<feComposite in2="hardAlpha" operator="arithmetic" k2="-1" k3="1"/>
<feColorMatrix type="matrix" values="0 0 0 0 1 0 0 0 0 1 0 0 0 0 1 0 0 0 1 0"/>
<feBlend mode="normal" in2="shape" result="effect1_innerShadow_0_172"/>
</filter>
<filter id="filter1_i_0_172" x="18.2968" y="19.1614" width="18.1118" height="21.1946" filterUnits="userSpaceOnUse" color-interpolation-filters="sRGB">
<feFlood flood-opacity="0" result="BackgroundImageFix"/>
<feBlend mode="normal" in="SourceGraphic" in2="BackgroundImageFix" result="shape"/>
<feColorMatrix in="SourceAlpha" type="matrix" values="0 0 0 0 0 0 0 0 0 0 0 0 0 0 0 0 0 0 127 0" result="hardAlpha"/>
<feOffset dx="-0.48" dy="3.84"/>
<feComposite in2="hardAlpha" operator="arithmetic" k2="-1" k3="1"/>
<feColorMatrix type="matrix" values="0 0 0 0 0 0 0 0 0 0 0 0 0 0 0 0 0 0 0.25 0"/>
<feBlend mode="normal" in2="shape" result="effect1_innerShadow_0_172"/>
</filter>
<filter id="filter2_i_0_172" x="51.9681" y="11.5701" width="28.9401" height="33.8657" filterUnits="userSpaceOnUse" color-interpolation-filters="sRGB">
<feFlood flood-opacity="0" result="BackgroundImageFix"/>
<feBlend mode="normal" in="SourceGraphic" in2="BackgroundImageFix" result="shape"/>
<feColorMatrix in="SourceAlpha" type="matrix" values="0 0 0 0 0 0 0 0 0 0 0 0 0 0 0 0 0 0 127 0" result="hardAlpha"/>
<feOffset dx="2.88" dy="1.92"/>
<feComposite in2="hardAlpha" operator="arithmetic" k2="-1" k3="1"/>
<feColorMatrix type="matrix" values="0 0 0 0 1 0 0 0 0 1 0 0 0 0 1 0 0 0 1 0"/>
<feBlend mode="normal" in2="shape" result="effect1_innerShadow_0_172"/>
</filter>
<filter id="filter3_i_0_172" x="59.9841" y="19.1614" width="18.1117" height="21.1946" filterUnits="userSpaceOnUse" color-interpolation-filters="sRGB">
<feFlood flood-opacity="0" result="BackgroundImageFix"/>
<feBlend mode="normal" in="SourceGraphic" in2="BackgroundImageFix" result="shape"/>
<feColorMatrix in="SourceAlpha" type="matrix" values="0 0 0 0 0 0 0 0 0 0 0 0 0 0 0 0 0 0 127 0" result="hardAlpha"/>
<feOffset dx="0.48" dy="3.84"/>
<feComposite in2="hardAlpha" operator="arithmetic" k2="-1" k3="1"/>
<feColorMatrix type="matrix" values="0 0 0 0 0 0 0 0 0 0 0 0 0 0 0 0 0 0 0.25 0"/>
<feBlend mode="normal" in2="shape" result="effect1_innerShadow_0_172"/>
</filter>
<filter id="filter4_i_0_172" x="16.9966" y="24.1968" width="61.483" height="55.8865" filterUnits="userSpaceOnUse" color-interpolation-filters="sRGB">
<feFlood flood-opacity="0" result="BackgroundImageFix"/>
<feBlend mode="normal" in="SourceGraphic" in2="BackgroundImageFix" result="shape"/>
<feColorMatrix in="SourceAlpha" type="matrix" values="0 0 0 0 0 0 0 0 0 0 0 0 0 0 0 0 0 0 127 0" result="hardAlpha"/>
<feOffset dy="4.8"/>
<feComposite in2="hardAlpha" operator="arithmetic" k2="-1" k3="1"/>
<feColorMatrix type="matrix" values="0 0 0 0 1 0 0 0 0 1 0 0 0 0 1 0 0 0 1 0"/>
<feBlend mode="normal" in2="shape" result="effect1_innerShadow_0_172"/>
</filter>
</defs>
</svg>