<svg width="548" height="696" viewBox="0 0 548 696" fill="none" xmlns="http://www.w3.org/2000/svg">
<ellipse cx="275" cy="640" rx="217" ry="56" fill="#B395CB"/>
<path d="M194.2 652.141C195.507 652.602 196.738 653.371 198.123 653.448C205.353 653.987 212.584 654.602 219.814 654.833C232.199 655.218 237.199 650.525 237.814 638.064C237.891 637.295 237.891 636.526 237.891 635.756C238.122 620.372 238.429 604.988 238.66 589.604C238.737 583.373 239.122 577.142 238.814 570.912C238.66 566.989 239.814 564.527 243.506 563.373C249.583 563.527 250.429 564.296 250.814 570.373C250.968 573.065 251.045 575.681 251.121 578.373C251.275 590.296 251.429 602.296 251.583 614.218C251.506 622.295 251.352 630.295 251.506 638.372C251.506 638.417 251.506 638.462 251.506 638.508C251.505 641.013 251.503 643.832 255.583 643.756C268.967 643.602 282.352 643.679 295.813 643.679C298.582 643.679 299.736 642.449 299.736 639.756C299.736 639.754 299.736 639.751 299.736 639.749C299.736 631.213 299.736 622.677 299.659 614.065C299.89 599.603 300.197 585.065 300.505 570.604C300.659 564.143 301.505 563.373 308.197 563.373C311.736 564.604 312.736 567.219 312.659 570.758C312.582 576.835 312.812 582.911 312.889 588.988C313.12 604.526 313.351 620.064 313.582 635.603C313.505 636.756 313.428 637.91 313.428 639.064C313.889 649.756 319.197 654.833 329.812 654.833C333.658 654.833 337.504 654.987 341.273 654.525C346.889 653.833 352.427 652.679 358.042 651.756C363.888 648.91 368.427 644.679 372.119 639.372C373.811 637.141 375.58 634.987 377.196 632.68C386.888 619.218 393.734 604.219 400.426 589.142C410.657 566.219 420.579 543.22 422.195 517.682C423.195 502.298 421.426 487.529 413.349 474.068C411.272 470.683 410.272 470.452 406.964 472.683C406.964 472.683 406.963 472.684 406.962 472.684C404.194 474.53 401.425 476.376 398.657 478.144C395.349 479.606 392.119 481.144 388.811 482.606C381.58 484.913 374.427 487.606 367.042 489.529C358.965 491.683 350.735 493.221 342.504 495.067C330.043 496.682 317.505 498.221 304.967 499.836C313.12 519.451 310.813 534.374 297.967 545.143C286.198 555.066 269.813 556.297 256.968 548.143C250.506 544.066 245.814 538.451 243.045 531.297C238.891 520.374 240.352 509.913 246.198 499.529C242.199 499.144 238.814 498.836 235.353 498.452C226.509 497.375 217.665 496.221 208.821 495.068C208.819 495.068 208.817 495.067 208.815 495.067C193.2 490.913 177.661 486.683 162.046 482.529C158.739 480.914 155.354 479.298 152.047 477.76C149.047 475.837 146.047 473.837 143.047 471.914C140.97 470.529 139.124 470.606 137.97 472.991C135.662 477.683 132.739 482.221 131.432 487.221C126.893 504.221 127.432 521.451 131.739 538.374C138.124 563.219 148.508 586.604 160.2 609.295C165.585 619.757 172.738 629.372 179.123 639.372C183.2 644.91 187.815 649.602 194.2 652.141ZM269.352 539.835C278.198 542.835 287.967 539.528 293.505 531.682C299.044 523.836 298.89 513.144 292.967 505.836C288.044 498.759 279.506 495.606 270.352 497.529C260.814 499.605 253.583 508.605 253.429 518.605C253.429 528.682 260.044 537.605 269.352 539.835ZM52.9718 475.914C52.8179 476.067 52.5102 476.221 52.4333 476.375C43.8181 512.913 56.2025 542.297 83.2019 566.681C85.1249 568.373 87.5095 569.604 89.2787 570.758C92.0479 563.681 94.5863 557.066 97.1247 550.451C101.355 542.451 107.124 535.912 115.047 531.451C118.355 529.605 116.663 526.989 116.586 524.682C116.509 523.759 114.894 522.605 113.74 521.99C109.663 519.913 105.125 518.605 101.355 516.067C82.5096 503.221 68.9714 485.836 59.3563 465.298C58.7409 463.991 58.1255 462.76 57.5871 461.452C57.2025 461.452 56.8179 461.529 56.4332 461.529C55.28 466.373 54.1267 471.14 52.9735 475.907C52.9729 475.909 52.9723 475.911 52.9718 475.914ZM384.888 642.602C386.042 642.833 386.888 643.141 387.734 643.064C387.834 643.06 387.934 643.057 388.035 643.053C396.705 642.749 405.449 642.442 414.118 641.91C422.964 641.372 429.81 637.141 434.964 629.987C447.502 612.526 451.963 593.373 447.425 572.296C445.425 563.066 442.425 554.297 435.348 547.604C433.887 546.22 432.041 545.22 430.118 543.835C419.041 579.065 406.041 612.526 384.888 642.602ZM121.201 544.297C113.74 547.297 107.817 554.374 105.355 564.296C100.202 584.758 102.663 604.68 111.509 623.68C113.586 628.141 116.97 632.449 120.74 635.756C134.124 647.295 149.739 644.218 165.662 641.91C144.816 611.757 131.97 578.604 121.201 544.297Z" fill="#FFF3D8"/>
<path fill-rule="evenodd" clip-rule="evenodd" d="M115.663 508.298C115.124 491.913 121.047 477.76 128.97 464.298C130.278 462.145 132.935 458.541 134.319 456.387C241.187 503.053 302.182 502.303 413.349 452.925C416.621 456.771 418.106 458.31 420.579 461.837C432.502 478.837 437.887 497.913 435.194 518.759C434.271 526.066 435.195 530.759 441.964 535.759C454.963 545.297 460.425 559.835 461.579 575.758C462.963 594.527 459.271 612.372 450.733 629.141C441.964 646.449 428.425 656.371 408.426 656.218C397.965 656.141 387.426 656.141 376.965 656.218C375.503 656.218 373.734 656.448 372.734 657.294C361.35 667.14 347.735 668.14 333.735 667.602C329.658 667.448 325.505 667.371 321.505 666.679C315.659 665.756 310.889 662.602 306.89 658.141C305.966 657.064 304.197 656.218 302.813 656.218C284.659 656.064 266.429 656.064 248.275 656.218C246.968 656.218 245.352 657.064 244.506 658.064C240.122 663.14 234.583 666.756 228.122 666.987C217.814 667.448 207.43 667.14 197.123 666.294C190.43 665.756 184.661 661.987 179.277 657.91C177.969 656.91 176.123 656.218 174.508 656.218C164.277 656.064 154.047 655.987 143.816 656.141C122.663 656.448 108.509 646.064 99.8939 627.449C93.9709 614.757 89.5095 601.603 89.6633 587.296C89.6633 586.142 88.2018 584.527 86.9711 583.758C70.2791 573.45 56.9717 560.066 48.1257 542.374C30.8953 507.836 33.4338 474.375 53.0487 441.684C53.3564 441.145 53.741 440.607 54.0487 440.068C55.9717 437.299 57.9717 434.53 62.0485 435.299C65.3561 435.914 67.8176 439.145 68.2792 443.607C69.5099 454.299 72.8944 464.298 78.5097 473.452C86.7403 486.836 96.817 498.375 110.586 506.375C111.663 506.99 112.817 507.605 113.97 508.144C114.355 508.298 114.74 508.221 115.663 508.298ZM198.123 653.448C196.738 653.371 195.507 652.602 194.2 652.141C187.815 649.602 183.2 644.91 179.123 639.372C172.738 629.372 165.585 619.757 160.2 609.295C148.508 586.604 138.124 563.219 131.739 538.374C127.432 521.451 126.893 504.221 131.432 487.221C132.739 482.221 135.662 477.683 137.97 472.991C139.124 470.606 140.97 470.529 143.047 471.914C146.047 473.837 149.047 475.837 152.047 477.76C155.354 479.298 158.739 480.914 162.046 482.529C177.661 486.683 193.2 490.913 208.815 495.067L208.821 495.068C217.665 496.221 226.509 497.375 235.353 498.452C238.814 498.836 242.199 499.144 246.198 499.529C240.352 509.913 238.891 520.374 243.045 531.297C245.814 538.451 250.506 544.066 256.968 548.143C269.813 556.297 286.198 555.066 297.967 545.143C310.813 534.374 313.12 519.451 304.967 499.836C317.505 498.221 330.043 496.682 342.504 495.067C350.735 493.221 358.965 491.683 367.042 489.529C374.427 487.606 381.58 484.913 388.811 482.606C392.119 481.144 395.349 479.606 398.657 478.144C401.425 476.376 404.194 474.53 406.962 472.684L406.964 472.683C410.272 470.452 411.272 470.683 413.349 474.068C421.426 487.529 423.195 502.298 422.195 517.682C420.579 543.22 410.657 566.219 400.426 589.142C393.734 604.219 386.888 619.218 377.196 632.68C375.58 634.987 373.811 637.141 372.119 639.372C368.427 644.679 363.888 648.91 358.042 651.756C352.427 652.679 346.889 653.833 341.273 654.525C337.504 654.987 333.658 654.833 329.812 654.833C319.197 654.833 313.889 649.756 313.428 639.064C313.428 637.91 313.505 636.756 313.582 635.603L312.889 588.988C312.812 582.911 312.582 576.835 312.659 570.758C312.736 567.219 311.736 564.604 308.197 563.373C301.505 563.373 300.659 564.143 300.505 570.604C300.197 585.065 299.89 599.603 299.659 614.065C299.736 622.677 299.736 631.213 299.736 639.749V639.756C299.736 642.449 298.582 643.679 295.813 643.679C282.352 643.679 268.967 643.602 255.583 643.756C251.503 643.832 251.505 641.013 251.506 638.508L251.506 638.372C251.352 630.295 251.506 622.295 251.583 614.218C251.429 602.296 251.275 590.296 251.121 578.373C251.045 575.681 250.968 573.065 250.814 570.373C250.429 564.296 249.583 563.527 243.506 563.373C239.814 564.527 238.66 566.989 238.814 570.912C239.122 577.142 238.737 583.373 238.66 589.604C238.429 604.988 238.122 620.372 237.891 635.756C237.891 636.526 237.891 637.295 237.814 638.064C237.199 650.525 232.199 655.218 219.814 654.833C212.584 654.602 205.353 653.987 198.123 653.448ZM293.505 531.682C287.967 539.528 278.198 542.835 269.352 539.835C260.044 537.605 253.429 528.682 253.429 518.605C253.583 508.605 260.814 499.605 270.352 497.529C279.506 495.606 288.044 498.759 292.967 505.836C298.89 513.144 299.044 523.836 293.505 531.682ZM52.4333 476.375C52.5102 476.221 52.8179 476.067 52.9718 475.914L52.9735 475.907C54.1267 471.14 55.28 466.373 56.4332 461.529C56.8179 461.529 57.2025 461.452 57.5871 461.452C58.1255 462.76 58.7409 463.991 59.3563 465.298C68.9714 485.836 82.5096 503.221 101.355 516.067C105.125 518.605 109.663 519.913 113.74 521.99C114.894 522.605 116.509 523.759 116.586 524.682C116.663 526.989 118.355 529.605 115.047 531.451C107.124 535.912 101.355 542.451 97.1247 550.451C94.5863 557.066 92.0479 563.681 89.2787 570.758C87.5095 569.604 85.1249 568.373 83.2019 566.681C56.2025 542.297 43.8181 512.913 52.4333 476.375ZM387.734 643.064C386.888 643.141 386.042 642.833 384.888 642.602C406.041 612.526 419.041 579.065 430.118 543.835C432.041 545.22 433.887 546.22 435.348 547.604C442.425 554.297 445.425 563.066 447.425 572.296C451.963 593.373 447.502 612.526 434.964 629.987C429.81 637.141 422.964 641.372 414.118 641.91C405.449 642.442 396.705 642.749 388.035 643.053L387.734 643.064ZM105.355 564.296C107.817 554.374 113.74 547.297 121.201 544.297C131.97 578.604 144.816 611.757 165.662 641.91C149.739 644.218 134.124 647.295 120.74 635.756C116.97 632.449 113.586 628.141 111.509 623.68C102.663 604.68 100.202 584.758 105.355 564.296Z" fill="#52003B"/>
<path d="M238.66 589.681C238.43 605.065 238.122 620.449 237.891 635.834C224.507 629.218 210.584 626.988 195.969 630.68C195.738 630.603 195.507 630.603 195.277 630.603C182.815 614.142 172.2 596.604 164.508 577.45C155.124 554.066 149.585 529.836 149.97 504.452C150.124 495.606 151.431 486.683 152.201 477.837C155.508 479.452 158.893 481.068 162.2 482.606C163.816 489.683 164.585 496.99 167.2 503.683C175.354 524.605 190.661 540.22 206.584 555.297C217.968 566.143 229.507 576.758 238.66 589.681Z" fill="#FFF3D8"/>
<path d="M388.887 482.606C392.195 481.144 395.425 479.606 398.733 478.145C399.502 483.529 400.656 488.914 400.964 494.298C401.656 508.682 401.271 523.144 398.579 537.297C392.656 568.604 380.041 597.065 361.503 622.911C359.657 625.449 358.195 628.295 356.503 630.987C356.272 631.064 356.042 631.064 355.811 631.064C355.272 630.834 354.734 630.449 354.119 630.295C339.965 627.064 326.504 629.295 313.581 635.603C313.35 620.065 313.119 604.526 312.889 588.988C314.427 586.988 315.812 584.758 317.581 582.988C330.35 570.143 343.042 557.297 355.965 544.528C368.349 532.22 378.964 518.682 385.041 502.221C387.195 496.067 387.579 489.144 388.887 482.606Z" fill="#FFF3D8"/>
<path d="M308.12 563.45C301.428 563.45 300.582 564.22 300.428 570.681C300.121 585.142 299.89 599.68 299.582 614.142C297.351 615.142 295.274 616.68 292.967 616.988C285.89 617.988 278.813 619.218 271.737 619.142C264.814 619.142 257.66 618.449 251.583 614.219C251.429 602.296 251.275 590.296 251.122 578.373C251.122 575.681 250.968 573.066 250.814 570.373C250.429 564.297 249.583 563.527 243.506 563.374C236.891 542.912 228.122 523.528 214.661 506.452C212.122 503.221 210.815 498.913 208.892 495.144C217.738 496.298 226.584 497.452 235.43 498.529C238.814 498.913 242.276 499.221 246.275 499.606C240.429 509.913 238.968 520.451 243.122 531.374C245.891 538.528 250.583 544.143 257.044 548.22C269.89 556.374 286.275 555.143 298.044 545.22C310.813 534.451 313.12 519.528 305.043 499.913C317.582 498.298 330.043 496.683 342.581 495.144C340.966 498.452 339.812 502.221 337.581 505.067C323.735 522.528 314.505 542.22 308.12 563.45Z" fill="#DCDDDC"/>
<path d="M308.119 563.45C314.504 542.22 323.734 522.528 337.657 505.067C339.888 502.221 341.042 498.452 342.657 495.144C350.811 493.298 359.118 491.76 367.195 489.606C374.502 487.606 381.656 484.991 388.964 482.683C387.656 489.221 387.271 496.144 384.964 502.298C378.887 518.759 368.349 532.374 355.887 544.605C343.041 557.374 330.273 570.219 317.504 583.065C315.734 584.835 314.35 587.065 312.811 589.065C312.734 582.988 312.504 576.912 312.581 570.835C312.657 567.22 311.581 564.681 308.119 563.45Z" fill="white"/>
<path d="M208.967 495.221C210.813 498.99 212.12 503.298 214.736 506.529C228.12 523.605 236.966 542.912 243.581 563.45C239.889 564.681 238.735 567.143 238.889 570.989C239.12 577.219 238.812 583.45 238.735 589.681C229.582 576.758 218.043 566.143 206.659 555.374C190.659 540.297 175.352 524.682 167.275 503.759C164.66 497.067 163.891 489.76 162.275 482.683C177.814 486.837 193.352 490.99 208.967 495.221Z" fill="white"/>
<path d="M356.426 631.064C358.041 628.372 359.58 625.603 361.426 622.988C379.964 597.142 392.579 568.681 398.502 537.374C401.194 523.22 401.579 508.759 400.886 494.375C400.656 488.99 399.425 483.606 398.656 478.221C401.425 476.375 404.194 474.606 406.963 472.76C410.271 470.529 411.271 470.76 413.348 474.145C421.501 487.606 423.271 502.375 422.194 517.759C420.501 543.297 410.655 566.297 400.425 589.219C393.733 604.296 386.81 619.295 377.195 632.757C375.579 635.064 373.81 637.218 372.118 639.449C367.964 634.526 362.195 632.757 356.426 631.064Z" fill="#DAD1BC"/>
<path d="M152.2 477.837C151.431 486.683 150.123 495.529 149.969 504.451C149.508 529.759 155.046 553.989 164.507 577.45C172.199 596.68 182.815 614.141 195.276 630.603C189.43 632.603 183.507 634.526 179.276 639.449C172.892 629.449 165.738 619.911 160.354 609.372C148.738 586.68 138.277 563.296 131.893 538.451C127.585 521.528 126.97 504.298 131.585 487.298C132.893 482.298 135.893 477.76 138.123 473.068C139.277 470.683 141.123 470.606 143.2 471.991C146.2 473.914 149.2 475.914 152.2 477.837Z" fill="#DAD1BC"/>
<path d="M384.887 642.602C405.963 612.526 419.04 579.065 430.116 543.758C432.039 545.143 433.809 546.143 435.347 547.527C442.424 554.22 445.424 563.066 447.424 572.219C451.962 593.296 447.501 612.449 434.962 629.91C429.809 637.141 422.963 641.295 414.117 641.833C405.348 642.372 396.502 642.679 387.733 642.987C386.963 643.141 386.04 642.833 384.887 642.602Z" fill="#DAD1BC"/>
<path d="M121.2 544.297C131.969 578.681 144.815 611.757 165.661 641.834C149.738 644.218 134.123 647.295 120.739 635.68C116.97 632.449 113.585 628.141 111.508 623.603C102.662 604.604 100.201 584.681 105.354 564.22C107.816 554.374 113.739 547.297 121.2 544.297Z" fill="#DAD1BC"/>
<path d="M52.9707 475.914C54.1245 471.145 55.2783 466.299 56.4321 461.529C56.8167 461.529 57.2013 461.453 57.5859 461.453C58.2013 462.76 58.7398 463.991 59.3551 465.299C68.9703 485.837 82.5085 503.221 101.354 516.067C105.123 518.605 109.662 519.99 113.739 521.99C114.892 522.605 116.585 523.759 116.585 524.682C116.662 526.913 118.277 529.605 115.046 531.451C107.2 535.912 101.354 542.451 97.1236 550.451C84.8931 544.912 75.5856 535.989 68.6627 524.605C61.7397 513.221 57.8167 500.759 55.2783 487.76C54.586 483.76 53.7399 479.837 52.9707 475.914Z" fill="#DAD1BC"/>
<path d="M52.9704 475.914C53.7396 479.837 54.5858 483.76 55.355 487.683C57.8165 500.683 61.8163 513.144 68.7393 524.528C75.6622 535.989 84.9697 544.835 97.2002 550.374C94.6618 556.989 92.1234 563.604 89.3542 570.681C87.585 569.527 85.2005 568.373 83.2775 566.604C56.2011 542.22 43.8937 512.836 52.5089 476.298C52.5327 476.198 52.7396 476.068 52.9704 475.914Z" fill="white"/>
<path d="M251.505 614.219C257.582 618.449 264.735 619.065 271.658 619.141C278.735 619.141 285.889 617.988 292.889 616.988C295.196 616.68 297.35 615.142 299.504 614.142C299.504 622.68 299.504 631.218 299.581 639.833C299.581 642.449 298.504 643.756 295.658 643.756C282.273 643.679 268.889 643.679 255.428 643.833C251.274 643.91 251.351 640.987 251.351 638.449C251.274 630.372 251.428 622.295 251.505 614.219Z" fill="#BFB6A2"/>
<path d="M313.503 635.68C326.425 629.295 339.887 627.141 354.04 630.372C354.656 630.526 355.117 630.834 355.732 631.141C349.809 638.218 343.887 645.372 337.502 653.064C342.502 652.679 346.733 652.295 351.04 651.987C353.348 651.833 355.656 651.833 358.04 651.756C352.425 652.679 346.886 653.833 341.271 654.525C337.502 654.987 333.656 654.833 329.81 654.833C319.195 654.833 313.887 649.756 313.426 639.064C313.349 637.987 313.426 636.833 313.503 635.68Z" fill="white"/>
<path d="M195.89 630.68C210.506 626.988 224.428 629.141 237.813 635.834C237.813 636.603 237.813 637.372 237.736 638.141C237.043 650.602 232.12 655.295 219.736 654.91C212.505 654.679 205.275 654.141 198.044 653.525C196.737 653.449 195.429 652.679 194.121 652.218C200.583 652.218 207.121 652.218 213.659 652.218C209.275 647.449 204.736 642.756 200.506 637.833C198.813 635.603 197.506 633.064 195.89 630.68Z" fill="white"/>
<path d="M195.891 630.68C197.429 633.064 198.814 635.68 200.66 637.757C204.89 642.68 211.797 649.894 216.259 654.74C209.721 654.74 202.277 654.359 196.587 653.349C188.837 650.766 183.024 644.978 179.101 639.44C183.331 634.517 189.429 632.603 195.275 630.526C195.429 630.603 195.66 630.603 195.891 630.68Z" fill="#DCDDDC"/>
<path d="M357.964 651.756C355.657 651.833 353.169 652.91 350.784 653.064C345.419 653.945 340.65 654.74 335.881 654.74C340.252 646.792 349.811 638.218 355.657 631.141C355.887 631.141 356.118 631.141 356.349 631.064C362.118 632.756 367.81 634.526 371.964 639.372C368.349 644.679 363.81 648.91 357.964 651.756Z" fill="#DCDDDC"/>
<circle cx="275.475" cy="519.023" r="22.2552" fill="#D199FD"/>
<path d="M275.138 509.709V510.555C274.636 511.596 274.254 512.411 273.99 513C273.727 513.577 273.595 513.972 273.595 514.185C273.595 514.548 273.802 514.73 274.216 514.73L277.921 506.606C278.786 506.041 279.965 505.759 281.457 505.759C282.961 505.759 284.253 506.173 285.331 507.001C286.51 507.928 287.099 509.195 287.099 510.8C287.099 512.141 286.641 513.464 285.726 514.768C284.811 516.059 283.613 517.181 282.134 518.134C281.444 517.746 280.824 517.551 280.272 517.551C279.72 517.551 279.444 517.821 279.444 518.36C280.021 518.473 280.541 518.636 281.005 518.849C281.482 519.05 282.04 519.445 282.679 520.034L287.682 524.642C287.318 528.704 285.287 530.735 281.588 530.735C280.222 530.735 279.049 530.384 278.072 529.682C276.918 528.867 276.015 527.626 275.363 525.958L273.614 521.595H273.52C273.106 521.595 272.9 521.77 272.9 522.121C272.9 522.347 273.075 522.893 273.426 523.758C273.777 524.698 274.304 525.952 275.006 527.519V528.967C273.689 530.146 271.777 530.735 269.27 530.735C267.916 530.735 266.756 530.428 265.791 529.813C264.7 529.149 264.154 528.202 264.154 526.974V507.565C265.446 506.386 267.408 505.797 270.041 505.797C271.408 505.797 272.567 506.085 273.52 506.662C274.599 507.352 275.138 508.367 275.138 509.709Z" fill="#52003B"/>
<path d="M413.773 459.61C413.773 472.889 350.431 494.781 272.294 494.781C194.157 494.781 130.814 472.889 130.814 459.61C130.814 408.939 157.441 465.372 272.294 459.61C405.03 452.95 413.773 417.682 413.773 459.61Z" fill="#52003B"/>
<path d="M398.672 463.439C398.672 474.5 331.833 487.627 272.523 487.627C213.212 487.627 149.891 474.5 149.891 463.439C149.891 435.368 170.755 469.486 272.523 469.486C388.538 469.486 398.672 434.883 398.672 463.439Z" fill="#380029"/>
<g filter="url(#filter0_i_1_3)">
<path d="M128.836 32.093C150.397 22.3265 150.783 74.3621 183.877 93.0912C215.354 110.905 249.72 150.464 249.72 150.464L100.402 246.53C100.402 246.53 79.7401 216.473 67.3217 164.866C54.9034 113.259 107.19 45.8715 128.836 32.093Z" fill="#FFF3D8"/>
</g>
<path d="M241.24 149.331L102.121 238.835C102.002 238.636 101.881 238.431 101.756 238.219C99.6963 234.716 96.799 229.482 93.5121 222.649C86.9368 208.98 78.8126 188.935 72.709 163.57C67.0018 139.852 76.1127 111.672 90.1218 87.0324C97.0517 74.8437 105.023 63.8033 112.557 54.9963C119.979 46.3199 126.739 40.0906 131.463 36.9921C133.072 36.3247 134.064 36.364 134.713 36.5232C135.485 36.7127 136.513 37.2591 137.849 38.6738C140.734 41.7295 143.467 47.027 147.056 54.3458C147.288 54.8198 147.524 55.3005 147.762 55.7873C154.443 69.4467 163.475 87.9122 181.148 97.9135C196.257 106.465 212.311 120.408 224.75 132.44C230.929 138.418 236.14 143.848 239.804 147.781C240.313 148.328 240.792 148.845 241.24 149.331Z" stroke="#52003B" stroke-width="11.0821"/>
<g filter="url(#filter1_i_1_3)">
<path d="M123.026 79.9803C136.52 73.8681 136.761 106.434 157.473 118.155C177.172 129.304 198.68 154.061 198.68 154.061L105.231 214.183C105.231 214.183 92.3005 195.372 84.5286 163.074C76.7568 130.777 109.48 88.6034 123.026 79.9803Z" fill="#FF6C6C"/>
</g>
<path d="M193.373 153.352L106.307 209.367C106.233 209.242 106.157 209.114 106.079 208.981C104.79 206.789 102.977 203.513 100.919 199.237C96.8045 190.683 91.72 178.137 87.9002 162.263C84.3284 147.42 90.0304 129.784 98.7977 114.363C103.135 106.735 108.123 99.8258 112.838 94.314C117.483 88.884 121.714 84.9855 124.671 83.0464C125.677 82.6286 126.299 82.6533 126.705 82.7529C127.188 82.8715 127.831 83.2135 128.667 84.0988C130.472 86.0112 132.183 89.3266 134.429 93.9069C134.575 94.2035 134.722 94.5044 134.871 94.809C139.052 103.358 144.705 114.914 155.765 121.173C165.221 126.525 175.268 135.251 183.053 142.781C186.92 146.522 190.181 149.921 192.474 152.382C192.793 152.724 193.093 153.048 193.373 153.352Z" stroke="#52003B" stroke-width="6.93559"/>
<g filter="url(#filter2_i_1_3)">
<path d="M418.642 32.093C397.081 22.3265 396.695 74.3621 363.601 93.0912C332.124 110.905 297.757 150.464 297.757 150.464L447.076 246.53C447.076 246.53 467.737 216.473 480.156 164.866C492.574 113.259 440.287 45.8715 418.642 32.093Z" fill="#FFF3D8"/>
</g>
<path d="M306.238 149.331L445.357 238.835C445.475 238.636 445.597 238.431 445.722 238.219C447.781 234.716 450.679 229.482 453.965 222.649C460.541 208.98 468.665 188.935 474.768 163.57C480.476 139.852 471.365 111.672 457.356 87.0324C450.426 74.8437 442.455 63.8033 434.921 54.9963C427.498 46.3199 420.739 40.0906 416.014 36.9921C414.406 36.3247 413.413 36.364 412.764 36.5232C411.992 36.7127 410.964 37.2591 409.629 38.6738C406.744 41.7295 404.01 47.027 400.421 54.3458C400.189 54.8198 399.954 55.3005 399.716 55.7873C393.034 69.4467 384.002 87.9122 366.33 97.9135C351.22 106.465 335.167 120.408 322.728 132.44C316.548 138.418 311.337 143.848 307.674 147.781C307.164 148.328 306.685 148.845 306.238 149.331Z" stroke="#52003B" stroke-width="11.0821"/>
<g filter="url(#filter3_i_1_3)">
<path d="M424.453 79.9803C410.96 73.8681 410.718 106.434 390.007 118.155C370.307 129.304 348.799 154.061 348.799 154.061L442.248 214.183C442.248 214.183 455.179 195.372 462.951 163.074C470.723 130.777 438 88.6034 424.453 79.9803Z" fill="#FF6C6C"/>
</g>
<path d="M354.107 153.352L441.172 209.367C441.247 209.242 441.323 209.114 441.401 208.981C442.69 206.789 444.503 203.513 446.56 199.237C450.675 190.683 455.759 178.137 459.579 162.263C463.151 147.42 457.449 129.784 448.682 114.363C444.345 106.735 439.356 99.8258 434.641 94.314C429.996 88.884 425.766 84.9855 422.809 83.0464C421.802 82.6286 421.181 82.6533 420.775 82.7529C420.292 82.8715 419.648 83.2135 418.813 84.0988C417.007 86.0112 415.296 89.3266 413.05 93.9069C412.905 94.2035 412.758 94.5044 412.609 94.809C408.427 103.358 402.775 114.914 391.715 121.173C382.258 126.525 372.212 135.251 364.427 142.781C360.559 146.522 357.298 149.921 355.005 152.382C354.687 152.724 354.387 153.048 354.107 153.352Z" stroke="#52003B" stroke-width="6.93559"/>
<g filter="url(#filter4_i_1_3)">
<path d="M461.712 407.734C461.712 408.956 459.267 410.179 458.35 409.568L444.901 398.87C442.15 405.289 438.788 411.096 434.509 416.292C434.204 416.598 433.898 417.209 433.592 417.514C433.592 417.82 433.898 418.126 433.898 418.431C436.343 423.322 439.4 426.378 443.067 429.74C445.513 432.186 447.958 434.325 450.097 436.465C450.709 437.382 448.875 439.827 447.652 439.521L418.004 430.963C411.586 435.242 404.25 439.215 395.692 442.578C394.469 443.8 393.552 445.023 392.635 446.245C390.496 449.302 389.885 452.053 389.579 455.415C389.273 457.554 388.968 459.694 388.662 461.833C388.356 462.445 385.3 462.445 384.994 461.833L376.13 448.996C350.762 455.415 317.14 458.777 272.21 458.777C204.051 458.777 161.566 451.136 134.974 436.465C133.14 439.521 131.918 442.883 130.695 446.857C129.778 449.913 128.556 453.275 127.639 456.332C127.028 457.249 124.277 456.637 123.971 455.415L119.386 428.212L106.243 423.016L89.1272 416.292C87.9046 415.681 87.9046 412.93 89.1272 412.624C91.2667 412.318 93.4063 412.013 95.5458 412.013C96.7684 412.013 97.6853 411.707 98.9079 411.707C101.353 411.402 103.798 411.096 106.243 410.485C102.27 404.066 98.9079 397.342 96.7684 390.312L83.0143 399.481C82.0973 400.093 79.6521 398.564 79.9578 397.342C81.486 394.285 83.0143 391.534 84.5425 388.478C86.9877 383.893 89.1272 379.92 89.7385 374.724C90.3498 369.528 90.0442 364.332 90.3498 359.136C90.3498 358.524 90.3498 357.913 90.3498 357.302C88.2103 337.435 88.2103 314.511 88.2103 288.531C88.2103 231.986 106.243 188.89 138.031 160.159C169.818 131.122 215.971 116.146 272.822 116.146C329.672 116.146 375.825 131.428 407.612 160.159C439.4 188.89 457.433 231.986 457.433 288.531C457.433 315.122 457.433 338.352 455.293 358.83C455.293 362.192 454.682 365.86 454.682 369.222C454.682 374.418 453.765 379.614 454.071 384.81C454.376 390.006 456.21 393.98 458.35 398.87C458.961 401.621 460.489 404.677 461.712 407.734Z" fill="#FFF3D8"/>
</g>
<path d="M461.712 407.734C461.712 408.956 459.267 410.179 458.35 409.568L444.901 398.87C442.15 405.289 438.788 411.096 434.509 416.292C434.204 416.598 433.898 417.209 433.592 417.514C433.592 417.82 433.898 418.126 433.898 418.431C436.343 423.322 439.4 426.378 443.067 429.74C445.513 432.186 447.958 434.325 450.097 436.465C450.709 437.382 448.875 439.827 447.652 439.521L418.004 430.963C411.586 435.242 404.25 439.215 395.692 442.578C394.469 443.8 393.552 445.023 392.635 446.245C390.496 449.302 389.885 452.053 389.579 455.415C389.273 457.554 388.968 459.694 388.662 461.833C388.356 462.445 385.3 462.445 384.994 461.833L376.13 448.996C350.762 455.415 317.14 458.777 272.21 458.777C204.051 458.777 161.566 451.136 134.974 436.465C133.14 439.521 131.918 442.883 130.695 446.857C129.778 449.913 128.556 453.275 127.639 456.332C127.028 457.249 124.277 456.637 123.971 455.415L119.386 428.212L106.243 423.016L89.1272 416.292C87.9046 415.681 87.9046 412.93 89.1272 412.624C91.2667 412.318 93.4063 412.013 95.5458 412.013C96.7684 412.013 97.6853 411.707 98.9079 411.707C101.353 411.402 103.798 411.096 106.243 410.485C102.27 404.066 98.9079 397.342 96.7684 390.312L83.0143 399.481C82.0973 400.093 79.6521 398.564 79.9578 397.342C81.486 394.285 83.0143 391.534 84.5425 388.478C86.9877 383.893 89.1272 379.92 89.7385 374.724C90.3498 369.528 90.0442 364.332 90.3498 359.136C90.3498 358.524 90.3498 357.913 90.3498 357.302C88.2103 337.435 88.2103 314.511 88.2103 288.531C88.2103 231.986 106.243 188.89 138.031 160.159C169.818 131.122 215.971 116.146 272.822 116.146C329.672 116.146 375.825 131.428 407.612 160.159C439.4 188.89 457.433 231.986 457.433 288.531C457.433 315.122 457.433 338.352 455.293 358.83C455.293 362.192 454.682 365.86 454.682 369.222C454.682 374.418 453.765 379.614 454.071 384.81C454.376 390.006 456.21 393.98 458.35 398.87C458.961 401.621 460.489 404.677 461.712 407.734Z" stroke="#52003B" stroke-width="9.72021"/>
<path d="M432.956 392.905C432.956 398.822 432.956 450.978 266.378 450.978C99.8005 450.978 110.498 394.237 110.498 388.32C110.498 385.052 138.005 438.605 266.378 437.224C394.751 435.843 432.956 389.637 432.956 392.905Z" fill="#BFB6A2"/>
<ellipse cx="270.199" cy="335.35" rx="80.1923" ry="43.7413" fill="white"/>
<path d="M270.201 364.51C283.88 364.51 297.56 386.381 297.56 386.381H242.843C242.843 386.381 256.523 364.51 270.201 364.51Z" fill="#52003B"/>
<path d="M266.238 359.118C257.583 382.917 218.638 376.427 214.311 354.79" stroke="#A59D8C" stroke-width="8.6545" stroke-linecap="round"/>
<path d="M267.772 359.65C258.052 386.381 214.311 379.091 209.451 354.79" stroke="#52003B" stroke-width="9.72028" stroke-linecap="round"/>
<path d="M274.166 359.118C282.82 382.917 321.766 376.427 326.093 354.79" stroke="#A59D8C" stroke-width="8.6545" stroke-linecap="round"/>
<path d="M272.634 359.65C282.354 386.381 326.095 379.091 330.955 354.79" stroke="#52003B" stroke-width="9.72028" stroke-linecap="round"/>
<path d="M311.511 327.32C311.511 343.591 294.104 364.51 272.63 364.51C251.157 364.51 233.749 343.591 233.749 327.32C233.749 318.334 251.157 311.049 272.63 311.049C294.104 311.049 311.511 318.334 311.511 327.32Z" fill="#52003B"/>
<path d="M301.791 326.686C301.791 332.602 288.735 323.199 272.63 323.199C256.525 323.199 243.469 332.602 243.469 326.686C243.469 323.418 256.525 315.909 272.63 315.909C288.735 315.909 301.791 323.418 301.791 326.686Z" fill="#8D8D8D"/>
<circle cx="248.329" cy="349.93" r="4.86014" fill="white"/>
<circle cx="296.932" cy="349.93" r="4.86014" fill="white"/>
<path d="M243.47 383.951C264.349 390.29 276.053 390.571 296.931 383.951" stroke="#52003B" stroke-width="9.72028" stroke-linecap="round"/>
<path d="M127.539 273.399C124.714 282.657 168.168 251.765 196.824 265.089C215.48 273.763 218.102 316.071 232.49 290.358C238.447 260.11 213.05 247.518 194.155 245.951C155.86 242.775 129.294 256.92 127.539 273.399Z" fill="#52003B"/>
<path d="M414.44 274.208C417.265 283.466 373.81 252.574 345.155 265.898C326.499 274.572 323.877 316.88 309.488 291.167C303.532 260.918 328.929 248.327 347.823 246.76C386.119 243.584 412.684 257.729 414.44 274.208Z" fill="#52003B"/>
<path d="M284.715 394.286C284.715 400.44 282.84 405.895 279.955 409.742C277.071 413.588 273.319 415.681 269.433 415.681C265.546 415.681 261.795 413.588 258.91 409.742C256.025 405.895 254.15 400.44 254.15 394.286C254.15 392.256 254.039 390.07 253.938 388.094C253.875 386.845 253.815 385.681 253.791 384.693C253.721 381.829 253.889 379.715 254.516 378.103C255.072 376.672 256.051 375.472 258.134 374.55C260.364 373.563 263.884 372.89 269.433 372.89C274.982 372.89 278.502 373.563 280.731 374.55C282.814 375.472 283.794 376.672 284.349 378.103C284.976 379.715 285.144 381.829 285.074 384.693C285.05 385.681 284.991 386.845 284.927 388.094C284.826 390.07 284.715 392.256 284.715 394.286Z" fill="#FF6C6C" stroke="#52003B" stroke-width="6.11296"/>
<path d="M266.205 375.444C266.123 375.311 266.042 375.182 265.963 375.058H273.037C272.958 375.182 272.877 375.311 272.795 375.444C272.072 376.605 271.19 378.118 270.642 379.408C270.166 380.531 269.793 381.841 269.5 383.168C269.207 381.841 268.834 380.531 268.357 379.408C267.81 378.118 266.928 376.605 266.205 375.444Z" fill="#52003B" stroke="#52003B" stroke-width="2.11695"/>
<defs>
<filter id="filter0_i_1_3" x="65.4395" y="30.8837" width="184.281" height="215.646" filterUnits="userSpaceOnUse" color-interpolation-filters="sRGB">
<feFlood flood-opacity="0" result="BackgroundImageFix"/>
<feBlend mode="normal" in="SourceGraphic" in2="BackgroundImageFix" result="shape"/>
<feColorMatrix in="SourceAlpha" type="matrix" values="0 0 0 0 0 0 0 0 0 0 0 0 0 0 0 0 0 0 127 0" result="hardAlpha"/>
<feOffset dx="-12.2259" dy="18.3389"/>
<feComposite in2="hardAlpha" operator="arithmetic" k2="-1" k3="1"/>
<feColorMatrix type="matrix" values="0 0 0 0 1 0 0 0 0 1 0 0 0 0 1 0 0 0 1 0"/>
<feBlend mode="normal" in2="shape" result="effect1_innerShadow_1_3"/>
</filter>
<filter id="filter1_i_1_3" x="83.3507" y="79.2235" width="115.329" height="134.959" filterUnits="userSpaceOnUse" color-interpolation-filters="sRGB">
<feFlood flood-opacity="0" result="BackgroundImageFix"/>
<feBlend mode="normal" in="SourceGraphic" in2="BackgroundImageFix" result="shape"/>
<feColorMatrix in="SourceAlpha" type="matrix" values="0 0 0 0 0 0 0 0 0 0 0 0 0 0 0 0 0 0 127 0" result="hardAlpha"/>
<feOffset dx="-3.05648" dy="24.4518"/>
<feComposite in2="hardAlpha" operator="arithmetic" k2="-1" k3="1"/>
<feColorMatrix type="matrix" values="0 0 0 0 0 0 0 0 0 0 0 0 0 0 0 0 0 0 0.25 0"/>
<feBlend mode="normal" in2="shape" result="effect1_innerShadow_1_3"/>
</filter>
<filter id="filter2_i_1_3" x="297.757" y="30.8837" width="184.281" height="215.646" filterUnits="userSpaceOnUse" color-interpolation-filters="sRGB">
<feFlood flood-opacity="0" result="BackgroundImageFix"/>
<feBlend mode="normal" in="SourceGraphic" in2="BackgroundImageFix" result="shape"/>
<feColorMatrix in="SourceAlpha" type="matrix" values="0 0 0 0 0 0 0 0 0 0 0 0 0 0 0 0 0 0 127 0" result="hardAlpha"/>
<feOffset dx="18.3389" dy="12.2259"/>
<feComposite in2="hardAlpha" operator="arithmetic" k2="-1" k3="1"/>
<feColorMatrix type="matrix" values="0 0 0 0 1 0 0 0 0 1 0 0 0 0 1 0 0 0 1 0"/>
<feBlend mode="normal" in2="shape" result="effect1_innerShadow_1_3"/>
</filter>
<filter id="filter3_i_1_3" x="348.799" y="79.2235" width="115.329" height="134.959" filterUnits="userSpaceOnUse" color-interpolation-filters="sRGB">
<feFlood flood-opacity="0" result="BackgroundImageFix"/>
<feBlend mode="normal" in="SourceGraphic" in2="BackgroundImageFix" result="shape"/>
<feColorMatrix in="SourceAlpha" type="matrix" values="0 0 0 0 0 0 0 0 0 0 0 0 0 0 0 0 0 0 127 0" result="hardAlpha"/>
<feOffset dx="3.05648" dy="24.4518"/>
<feComposite in2="hardAlpha" operator="arithmetic" k2="-1" k3="1"/>
<feColorMatrix type="matrix" values="0 0 0 0 0 0 0 0 0 0 0 0 0 0 0 0 0 0 0.25 0"/>
<feBlend mode="normal" in2="shape" result="effect1_innerShadow_1_3"/>
</filter>
<filter id="filter4_i_1_3" x="75.0689" y="111.286" width="391.503" height="355.866" filterUnits="userSpaceOnUse" color-interpolation-filters="sRGB">
<feFlood flood-opacity="0" result="BackgroundImageFix"/>
<feBlend mode="normal" in="SourceGraphic" in2="BackgroundImageFix" result="shape"/>
<feColorMatrix in="SourceAlpha" type="matrix" values="0 0 0 0 0 0 0 0 0 0 0 0 0 0 0 0 0 0 127 0" result="hardAlpha"/>
<feOffset dy="30.5648"/>
<feComposite in2="hardAlpha" operator="arithmetic" k2="-1" k3="1"/>
<feColorMatrix type="matrix" values="0 0 0 0 1 0 0 0 0 1 0 0 0 0 1 0 0 0 1 0"/>
<feBlend mode="normal" in2="shape" result="effect1_innerShadow_1_3"/>
</filter>
</defs>
</svg>