<svg width="1618" height="866" viewBox="0 0 1618 866" fill="none" xmlns="http://www.w3.org/2000/svg">
<path d="M446.46 488.132C446.898 488.286 447.309 488.544 447.772 488.569C450.191 488.75 452.609 488.955 455.028 489.033C459.17 489.161 460.843 487.592 461.049 483.424C461.074 483.166 461.074 482.909 461.074 482.652C461.151 477.506 461.254 472.36 461.332 467.214C461.357 465.13 461.486 463.046 461.383 460.962C461.332 459.65 461.717 458.826 462.952 458.441C464.985 458.492 465.268 458.749 465.397 460.782C465.448 461.682 465.474 462.557 465.5 463.458C465.551 467.446 465.603 471.46 465.654 475.448C465.628 478.149 465.577 480.825 465.628 483.526C465.628 483.542 465.628 483.557 465.628 483.572C465.628 484.41 465.627 485.353 466.992 485.328C471.469 485.276 475.946 485.302 480.448 485.302C481.375 485.302 481.761 484.89 481.761 483.99C481.761 483.989 481.761 483.988 481.761 483.987C481.761 481.132 481.761 478.277 481.735 475.396C481.812 470.559 481.915 465.696 482.018 460.859C482.069 458.698 482.352 458.441 484.591 458.441C485.774 458.852 486.109 459.727 486.083 460.911C486.057 462.943 486.134 464.976 486.16 467.008C486.237 472.206 486.315 477.403 486.392 482.6C486.366 482.986 486.34 483.372 486.34 483.758C486.495 487.334 488.27 489.033 491.821 489.033C493.107 489.033 494.394 489.084 495.654 488.93C497.532 488.698 499.385 488.312 501.263 488.003C503.219 487.051 504.737 485.636 505.972 483.861C506.538 483.115 507.129 482.394 507.67 481.623C510.912 477.12 513.202 472.103 515.44 467.06C518.862 459.393 522.181 451.7 522.721 443.157C523.056 438.012 522.464 433.072 519.762 428.569C519.068 427.437 518.733 427.36 517.627 428.106C517.627 428.106 517.627 428.106 517.626 428.106C516.7 428.724 515.774 429.341 514.848 429.933C513.742 430.421 512.661 430.936 511.555 431.425C509.136 432.197 506.744 433.097 504.274 433.741C501.572 434.461 498.819 434.976 496.066 435.593C491.898 436.133 487.704 436.648 483.51 437.188C486.237 443.749 485.466 448.741 481.169 452.343C477.232 455.662 471.752 456.073 467.455 453.346C465.294 451.983 463.724 450.104 462.798 447.711C461.409 444.058 461.898 440.559 463.853 437.085C462.515 436.957 461.383 436.854 460.225 436.725C457.267 436.365 454.309 435.979 451.351 435.593C451.35 435.593 451.349 435.593 451.349 435.593C446.126 434.204 440.928 432.789 435.705 431.399C434.599 430.859 433.467 430.319 432.361 429.804C431.357 429.161 430.354 428.492 429.35 427.849C428.656 427.385 428.038 427.411 427.652 428.209C426.88 429.778 425.902 431.296 425.465 432.969C423.947 438.655 424.127 444.418 425.568 450.079C427.704 458.389 431.177 466.211 435.088 473.801C436.889 477.3 439.282 480.516 441.417 483.861C442.781 485.713 444.325 487.283 446.46 488.132ZM471.597 450.567C474.556 451.571 477.824 450.464 479.676 447.84C481.529 445.216 481.477 441.639 479.496 439.195C477.85 436.828 474.994 435.773 471.932 436.416C468.742 437.111 466.323 440.121 466.272 443.466C466.272 446.837 468.484 449.821 471.597 450.567ZM399.221 429.186C399.17 429.238 399.067 429.289 399.041 429.341C396.16 441.562 400.302 451.391 409.333 459.547C409.976 460.113 410.774 460.525 411.366 460.911C412.292 458.543 413.141 456.331 413.99 454.118C415.405 451.442 417.335 449.255 419.985 447.763C421.091 447.145 420.525 446.271 420.499 445.499C420.474 445.19 419.933 444.804 419.547 444.598C418.184 443.904 416.666 443.466 415.405 442.617C409.101 438.32 404.573 432.506 401.357 425.636C401.151 425.198 400.945 424.787 400.765 424.349C400.636 424.349 400.508 424.375 400.379 424.375C399.993 425.995 399.608 427.59 399.222 429.184C399.222 429.185 399.222 429.186 399.221 429.186ZM510.243 484.942C510.629 485.019 510.912 485.122 511.195 485.096C511.228 485.095 511.262 485.094 511.295 485.092C514.195 484.991 517.12 484.888 520.02 484.71C522.979 484.53 525.269 483.115 526.992 480.722C531.186 474.881 532.679 468.475 531.161 461.425C530.492 458.338 529.488 455.405 527.121 453.166C526.632 452.703 526.015 452.368 525.371 451.905C521.666 463.689 517.318 474.881 510.243 484.942ZM422.043 452.06C419.547 453.063 417.566 455.43 416.743 458.749C415.019 465.593 415.842 472.257 418.801 478.612C419.496 480.105 420.628 481.545 421.889 482.652C426.366 486.511 431.589 485.482 436.915 484.71C429.942 474.624 425.645 463.535 422.043 452.06Z" fill="#FFF3D8"/>
<path fill-rule="evenodd" clip-rule="evenodd" d="M420.191 440.018C420.011 434.538 421.992 429.804 424.642 425.301C425.079 424.581 425.968 423.375 426.431 422.655C462.177 438.264 482.579 438.014 519.762 421.497C520.857 422.784 521.354 423.298 522.181 424.478C526.169 430.164 527.97 436.545 527.07 443.518C526.761 445.962 527.07 447.531 529.334 449.204C533.682 452.394 535.509 457.257 535.895 462.583C536.358 468.861 535.123 474.83 532.267 480.439C529.334 486.228 524.805 489.547 518.116 489.496C514.617 489.47 511.092 489.47 507.593 489.496C507.104 489.496 506.512 489.573 506.177 489.856C502.37 493.149 497.816 493.484 493.133 493.304C491.769 493.252 490.38 493.226 489.042 492.995C487.086 492.686 485.491 491.631 484.153 490.139C483.845 489.779 483.253 489.496 482.79 489.496C476.718 489.444 470.62 489.444 464.548 489.496C464.11 489.496 463.57 489.779 463.287 490.113C461.82 491.811 459.968 493.021 457.807 493.098C454.359 493.252 450.886 493.149 447.438 492.866C445.199 492.686 443.27 491.425 441.469 490.062C441.031 489.727 440.414 489.496 439.873 489.496C436.451 489.444 433.029 489.418 429.608 489.47C422.532 489.573 417.798 486.099 414.916 479.873C412.935 475.628 411.443 471.228 411.494 466.442C411.494 466.056 411.005 465.516 410.594 465.259C405.01 461.811 400.559 457.334 397.6 451.416C391.837 439.864 392.686 428.672 399.247 417.737C399.35 417.557 399.479 417.377 399.582 417.197C400.225 416.27 400.894 415.344 402.257 415.601C403.364 415.807 404.187 416.888 404.341 418.38C404.753 421.957 405.885 425.301 407.763 428.363C410.516 432.84 413.887 436.699 418.492 439.375C418.853 439.581 419.239 439.787 419.625 439.967C419.753 440.018 419.882 439.993 420.191 440.018ZM447.772 488.569C447.309 488.544 446.898 488.286 446.46 488.132C444.325 487.283 442.781 485.713 441.417 483.861C439.282 480.516 436.889 477.3 435.088 473.801C431.177 466.211 427.704 458.389 425.568 450.079C424.127 444.418 423.947 438.655 425.465 432.969C425.902 431.296 426.88 429.778 427.652 428.209C428.038 427.411 428.656 427.385 429.35 427.849C430.354 428.492 431.357 429.161 432.361 429.804C433.467 430.319 434.599 430.859 435.705 431.399C440.928 432.789 446.126 434.204 451.349 435.593L451.351 435.593C454.309 435.979 457.267 436.365 460.225 436.725C461.383 436.854 462.515 436.957 463.853 437.085C461.898 440.559 461.409 444.058 462.798 447.711C463.724 450.104 465.294 451.983 467.455 453.346C471.752 456.073 477.232 455.662 481.169 452.343C485.466 448.741 486.237 443.749 483.51 437.188C487.704 436.648 491.898 436.133 496.066 435.593C498.819 434.976 501.572 434.461 504.274 433.741C506.744 433.097 509.136 432.197 511.555 431.425C512.661 430.936 513.742 430.421 514.848 429.933C515.774 429.341 516.7 428.724 517.626 428.106L517.627 428.106C518.733 427.36 519.068 427.437 519.762 428.569C522.464 433.072 523.056 438.012 522.721 443.157C522.181 451.7 518.862 459.393 515.44 467.06C513.202 472.103 510.912 477.12 507.67 481.623C507.129 482.394 506.538 483.115 505.972 483.861C504.737 485.636 503.219 487.051 501.263 488.003C499.385 488.312 497.532 488.698 495.654 488.93C494.394 489.084 493.107 489.033 491.821 489.033C488.27 489.033 486.495 487.334 486.34 483.758C486.34 483.372 486.366 482.986 486.392 482.6L486.16 467.008C486.134 464.976 486.057 462.943 486.083 460.911C486.109 459.727 485.774 458.852 484.591 458.441C482.352 458.441 482.069 458.698 482.018 460.859C481.915 465.696 481.812 470.559 481.735 475.396C481.761 478.277 481.761 481.132 481.761 483.987V483.99C481.761 484.89 481.375 485.302 480.448 485.302C475.946 485.302 471.469 485.276 466.992 485.328C465.627 485.353 465.628 484.41 465.628 483.572L465.628 483.526C465.577 480.825 465.628 478.149 465.654 475.448C465.603 471.46 465.551 467.446 465.5 463.458C465.474 462.557 465.448 461.682 465.397 460.782C465.268 458.749 464.985 458.492 462.952 458.441C461.717 458.826 461.332 459.65 461.383 460.962C461.486 463.046 461.357 465.13 461.332 467.214C461.254 472.36 461.151 477.506 461.074 482.652C461.074 482.909 461.074 483.166 461.049 483.424C460.843 487.592 459.17 489.161 455.028 489.033C452.609 488.955 450.191 488.75 447.772 488.569ZM479.676 447.84C477.824 450.464 474.556 451.571 471.597 450.567C468.484 449.821 466.272 446.837 466.272 443.466C466.323 440.121 468.742 437.111 471.932 436.416C474.994 435.773 477.85 436.828 479.496 439.195C481.477 441.639 481.529 445.216 479.676 447.84ZM399.041 429.341C399.067 429.289 399.17 429.238 399.221 429.186L399.222 429.184C399.608 427.59 399.993 425.995 400.379 424.375C400.508 424.375 400.636 424.349 400.765 424.349C400.945 424.787 401.151 425.198 401.357 425.636C404.573 432.506 409.101 438.32 415.405 442.617C416.666 443.466 418.184 443.904 419.547 444.598C419.933 444.804 420.474 445.19 420.499 445.499C420.525 446.271 421.091 447.145 419.985 447.763C417.335 449.255 415.405 451.442 413.99 454.118C413.141 456.331 412.292 458.543 411.366 460.911C410.774 460.525 409.976 460.113 409.333 459.547C400.302 451.391 396.16 441.562 399.041 429.341ZM511.195 485.096C510.912 485.122 510.629 485.019 510.243 484.942C517.318 474.881 521.666 463.689 525.371 451.905C526.015 452.368 526.632 452.703 527.121 453.166C529.488 455.405 530.492 458.338 531.161 461.425C532.679 468.475 531.186 474.881 526.992 480.722C525.269 483.115 522.979 484.53 520.02 484.71C517.12 484.888 514.195 484.991 511.295 485.092L511.195 485.096ZM416.743 458.749C417.566 455.43 419.547 453.063 422.043 452.06C425.645 463.535 429.942 474.624 436.915 484.71C431.589 485.482 426.366 486.511 421.889 482.652C420.628 481.545 419.496 480.105 418.801 478.612C415.842 472.257 415.019 465.593 416.743 458.749Z" fill="#52003B"/>
<path d="M461.331 467.24C461.254 472.386 461.151 477.532 461.074 482.678C456.597 480.465 451.94 479.719 447.052 480.954C446.974 480.928 446.897 480.928 446.82 480.928C442.652 475.422 439.101 469.556 436.528 463.149C433.389 455.327 431.537 447.223 431.665 438.732C431.717 435.773 432.154 432.789 432.412 429.83C433.518 430.37 434.65 430.91 435.756 431.425C436.297 433.792 436.554 436.236 437.429 438.475C440.156 445.473 445.276 450.696 450.602 455.739C454.41 459.367 458.269 462.918 461.331 467.24Z" fill="#FFF3D8"/>
<path d="M511.58 431.425C512.687 430.936 513.767 430.421 514.874 429.933C515.131 431.734 515.517 433.535 515.62 435.336C515.851 440.147 515.723 444.984 514.822 449.718C512.841 460.19 508.621 469.71 502.421 478.355C501.803 479.204 501.314 480.156 500.748 481.056C500.671 481.082 500.594 481.082 500.517 481.082C500.337 481.005 500.157 480.876 499.951 480.825C495.217 479.744 490.714 480.49 486.391 482.6C486.314 477.403 486.237 472.206 486.16 467.008C486.674 466.339 487.138 465.593 487.729 465.001C492 460.705 496.246 456.408 500.568 452.137C504.711 448.02 508.261 443.492 510.294 437.986C511.014 435.928 511.143 433.612 511.58 431.425Z" fill="#FFF3D8"/>
<path d="M484.565 458.466C482.326 458.466 482.043 458.724 481.992 460.885C481.889 465.722 481.812 470.585 481.709 475.422C480.963 475.756 480.268 476.271 479.496 476.374C477.129 476.708 474.762 477.12 472.395 477.094C470.079 477.094 467.686 476.863 465.654 475.448C465.602 471.46 465.551 467.446 465.499 463.458C465.499 462.557 465.448 461.683 465.396 460.782C465.268 458.749 464.985 458.492 462.952 458.441C460.739 451.597 457.806 445.113 453.304 439.401C452.455 438.32 452.017 436.88 451.374 435.619C454.333 436.005 457.292 436.391 460.251 436.751C461.383 436.88 462.54 436.983 463.878 437.111C461.923 440.559 461.434 444.084 462.824 447.737C463.75 450.13 465.319 452.008 467.48 453.372C471.777 456.099 477.258 455.688 481.194 452.369C485.465 448.767 486.237 443.775 483.535 437.214C487.729 436.674 491.897 436.133 496.091 435.619C495.551 436.725 495.165 437.986 494.419 438.938C489.788 444.778 486.7 451.365 484.565 458.466Z" fill="#DCDDDC"/>
<path d="M484.564 458.466C486.7 451.365 489.787 444.778 494.444 438.938C495.191 437.986 495.577 436.725 496.117 435.619C498.844 435.001 501.623 434.487 504.324 433.766C506.769 433.097 509.162 432.223 511.606 431.451C511.168 433.638 511.04 435.953 510.268 438.012C508.235 443.518 504.71 448.072 500.542 452.163C496.245 456.434 491.974 460.73 487.703 465.027C487.112 465.619 486.649 466.365 486.134 467.034C486.108 465.002 486.031 462.969 486.057 460.936C486.082 459.727 485.722 458.878 484.564 458.466Z" fill="white"/>
<path d="M451.4 435.645C452.017 436.905 452.455 438.346 453.33 439.427C457.806 445.139 460.765 451.597 462.978 458.466C461.743 458.878 461.357 459.701 461.408 460.988C461.486 463.072 461.383 465.156 461.357 467.24C458.295 462.917 454.436 459.367 450.628 455.765C445.276 450.722 440.156 445.499 437.455 438.5C436.58 436.262 436.323 433.818 435.782 431.451C440.98 432.84 446.177 434.229 451.4 435.645Z" fill="white"/>
<path d="M500.723 481.082C501.263 480.182 501.778 479.255 502.395 478.381C508.596 469.736 512.816 460.216 514.797 449.744C515.697 445.01 515.826 440.173 515.594 435.361C515.517 433.56 515.106 431.759 514.848 429.958C515.774 429.341 516.701 428.749 517.627 428.131C518.733 427.385 519.068 427.463 519.762 428.595C522.49 433.097 523.082 438.037 522.721 443.183C522.155 451.725 518.862 459.418 515.44 467.085C513.202 472.128 510.886 477.146 507.67 481.648C507.129 482.42 506.538 483.14 505.972 483.887C504.582 482.24 502.653 481.648 500.723 481.082Z" fill="#DAD1BC"/>
<path d="M432.411 429.83C432.154 432.788 431.717 435.747 431.665 438.732C431.511 447.197 433.363 455.301 436.528 463.149C439.101 469.581 442.652 475.422 446.82 480.928C444.864 481.597 442.883 482.24 441.468 483.887C439.333 480.542 436.94 477.351 435.139 473.826C431.254 466.236 427.754 458.415 425.619 450.104C424.178 444.444 423.972 438.68 425.516 432.994C425.953 431.322 426.957 429.804 427.703 428.234C428.089 427.437 428.706 427.411 429.401 427.874C430.405 428.517 431.408 429.186 432.411 429.83Z" fill="#DAD1BC"/>
<path d="M510.242 484.942C517.292 474.882 521.666 463.689 525.371 451.88C526.014 452.343 526.606 452.677 527.121 453.14C529.488 455.379 530.491 458.338 531.16 461.399C532.678 468.449 531.186 474.856 526.992 480.696C525.268 483.115 522.978 484.504 520.019 484.684C517.086 484.864 514.127 484.967 511.194 485.07C510.937 485.122 510.628 485.019 510.242 484.942Z" fill="#DAD1BC"/>
<path d="M422.043 452.06C425.645 463.561 429.942 474.624 436.915 484.684C431.589 485.482 426.366 486.511 421.889 482.626C420.628 481.545 419.496 480.105 418.802 478.587C415.843 472.231 415.019 465.568 416.743 458.724C417.567 455.43 419.548 453.063 422.043 452.06Z" fill="#DAD1BC"/>
<path d="M399.221 429.186C399.607 427.591 399.993 425.97 400.379 424.375C400.507 424.375 400.636 424.349 400.764 424.349C400.97 424.787 401.15 425.198 401.356 425.636C404.572 432.506 409.101 438.32 415.404 442.617C416.665 443.466 418.183 443.929 419.547 444.598C419.933 444.804 420.499 445.19 420.499 445.499C420.524 446.245 421.065 447.145 419.984 447.763C417.36 449.255 415.404 451.442 413.989 454.118C409.898 452.266 406.785 449.281 404.469 445.473C402.154 441.665 400.842 437.497 399.993 433.149C399.761 431.811 399.478 430.499 399.221 429.186Z" fill="#DAD1BC"/>
<path d="M399.221 429.187C399.478 430.499 399.761 431.811 400.019 433.123C400.842 437.471 402.18 441.639 404.496 445.447C406.811 449.281 409.924 452.24 414.015 454.092C413.166 456.305 412.317 458.518 411.391 460.885C410.799 460.499 410.002 460.113 409.358 459.521C400.302 451.365 396.185 441.537 399.067 429.315C399.075 429.281 399.144 429.238 399.221 429.187Z" fill="white"/>
<path d="M465.628 475.448C467.66 476.863 470.053 477.069 472.369 477.094C474.736 477.094 477.129 476.708 479.47 476.374C480.242 476.271 480.962 475.756 481.683 475.422C481.683 478.278 481.683 481.134 481.709 484.015C481.709 484.89 481.348 485.328 480.396 485.328C475.919 485.302 471.443 485.302 466.94 485.353C465.551 485.379 465.576 484.401 465.576 483.552C465.551 480.851 465.602 478.149 465.628 475.448Z" fill="#BFB6A2"/>
<path d="M486.365 482.626C490.688 480.491 495.191 479.77 499.925 480.851C500.131 480.902 500.285 481.005 500.491 481.108C498.51 483.475 496.529 485.868 494.393 488.441C496.065 488.312 497.48 488.184 498.921 488.081C499.693 488.029 500.465 488.029 501.263 488.003C499.384 488.312 497.532 488.698 495.654 488.93C494.393 489.084 493.107 489.033 491.82 489.033C488.269 489.033 486.494 487.335 486.34 483.758C486.314 483.398 486.34 483.012 486.365 482.626Z" fill="white"/>
<path d="M447.026 480.954C451.915 479.719 456.572 480.439 461.049 482.677C461.049 482.935 461.049 483.192 461.023 483.449C460.791 487.617 459.145 489.187 455.002 489.058C452.584 488.981 450.165 488.801 447.747 488.595C447.309 488.569 446.872 488.312 446.435 488.158C448.596 488.158 450.783 488.158 452.97 488.158C451.503 486.563 449.985 484.993 448.57 483.346C448.004 482.6 447.567 481.751 447.026 480.954Z" fill="white"/>
<path d="M447.026 480.954C447.541 481.751 448.004 482.626 448.621 483.321C450.036 484.967 452.347 487.381 453.839 489.001C451.652 489.001 449.162 488.874 447.259 488.536C444.667 487.672 442.722 485.736 441.41 483.884C442.825 482.237 444.865 481.597 446.82 480.902C446.872 480.928 446.949 480.928 447.026 480.954Z" fill="#DCDDDC"/>
<path d="M501.237 488.003C500.466 488.029 499.633 488.389 498.836 488.441C497.041 488.736 495.446 489.002 493.851 489.002C495.313 486.343 498.51 483.475 500.466 481.108C500.543 481.108 500.62 481.108 500.697 481.082C502.627 481.648 504.531 482.24 505.92 483.861C504.711 485.636 503.193 487.051 501.237 488.003Z" fill="#DCDDDC"/>
<circle cx="473.645" cy="443.606" r="7.44406" fill="#D199FD"/>
<path d="M473.533 440.78V441.063C473.365 441.411 473.237 441.684 473.149 441.881C473.061 442.074 473.017 442.206 473.017 442.277C473.017 442.399 473.086 442.46 473.224 442.46L474.464 439.742C474.753 439.553 475.147 439.459 475.646 439.459C476.149 439.459 476.581 439.597 476.942 439.874C477.336 440.184 477.533 440.608 477.533 441.145C477.533 441.594 477.38 442.036 477.074 442.472C476.768 442.904 476.368 443.279 475.873 443.598C475.642 443.468 475.434 443.403 475.25 443.403C475.065 443.403 474.973 443.493 474.973 443.674C475.166 443.711 475.34 443.766 475.495 443.837C475.655 443.904 475.841 444.036 476.055 444.234L477.728 445.775C477.607 447.134 476.927 447.813 475.69 447.813C475.233 447.813 474.841 447.696 474.514 447.461C474.128 447.188 473.826 446.773 473.608 446.215L473.023 444.756H472.992C472.853 444.756 472.784 444.814 472.784 444.932C472.784 445.007 472.843 445.19 472.96 445.479C473.077 445.794 473.254 446.213 473.488 446.737V447.222C473.048 447.616 472.409 447.813 471.57 447.813C471.117 447.813 470.729 447.71 470.406 447.505C470.041 447.282 469.859 446.966 469.859 446.555V440.063C470.291 439.669 470.947 439.472 471.828 439.472C472.285 439.472 472.673 439.568 472.992 439.761C473.352 439.992 473.533 440.331 473.533 440.78Z" fill="#52003B"/>
<path d="M519.905 423.733C519.905 428.175 498.717 435.497 472.582 435.497C446.446 435.497 425.259 428.175 425.259 423.733C425.259 406.785 434.165 425.661 472.582 423.733C516.98 421.506 519.905 409.709 519.905 423.733Z" fill="#52003B"/>
<path d="M514.854 425.014C514.854 428.714 492.497 433.105 472.658 433.105C452.82 433.105 431.64 428.714 431.64 425.014C431.64 415.624 438.618 427.036 472.658 427.037C511.464 427.037 514.854 415.462 514.854 425.014Z" fill="#380029"/>
<g filter="url(#filter0_i_7_818)">
<path d="M424.597 280.735C431.809 277.468 431.938 294.873 443.008 301.138C453.536 307.096 465.031 320.328 465.031 320.328L415.086 352.461C415.086 352.461 408.175 342.407 404.022 325.145C399.868 307.883 417.357 285.343 424.597 280.735Z" fill="#FFF3D8"/>
</g>
<path d="M462.195 319.949L415.661 349.887C415.622 349.821 415.581 349.752 415.539 349.681C414.85 348.509 413.881 346.758 412.782 344.473C410.583 339.901 407.865 333.196 405.824 324.712C403.915 316.779 406.962 307.353 411.648 299.111C413.966 295.034 416.632 291.341 419.152 288.396C421.635 285.493 423.896 283.41 425.476 282.373C426.014 282.15 426.346 282.163 426.563 282.217C426.821 282.28 427.165 282.463 427.612 282.936C428.577 283.958 429.491 285.73 430.692 288.178C430.769 288.336 430.848 288.497 430.928 288.66C433.162 293.229 436.184 299.405 442.095 302.751C447.149 305.611 452.518 310.275 456.679 314.299C458.746 316.299 460.489 318.115 461.714 319.431C461.885 319.614 462.045 319.787 462.195 319.949Z" stroke="#52003B" stroke-width="3.70681"/>
<g filter="url(#filter1_i_7_818)">
<path d="M422.653 296.752C427.167 294.708 427.248 305.601 434.175 309.521C440.764 313.25 447.958 321.531 447.958 321.531L416.701 341.641C416.701 341.641 412.376 335.349 409.776 324.546C407.177 313.743 418.122 299.637 422.653 296.752Z" fill="#FF6C6C"/>
</g>
<path d="M446.183 321.294L417.061 340.03C417.036 339.989 417.011 339.946 416.985 339.901C416.553 339.168 415.947 338.072 415.259 336.642C413.882 333.781 412.182 329.585 410.904 324.275C409.709 319.31 411.617 313.411 414.549 308.253C416 305.702 417.668 303.39 419.246 301.547C420.799 299.731 422.214 298.427 423.203 297.778C423.54 297.638 423.748 297.646 423.884 297.68C424.045 297.719 424.26 297.834 424.54 298.13C425.144 298.77 425.716 299.879 426.467 301.411C426.516 301.51 426.565 301.61 426.615 301.712C428.014 304.572 429.905 308.437 433.604 310.531C436.767 312.321 440.127 315.24 442.731 317.758C444.025 319.01 445.116 320.146 445.883 320.97C445.989 321.084 446.09 321.193 446.183 321.294Z" stroke="#52003B" stroke-width="2.31986"/>
<g filter="url(#filter2_i_7_818)">
<path d="M521.533 280.735C514.321 277.468 514.192 294.873 503.122 301.138C492.594 307.096 481.099 320.328 481.099 320.328L531.043 352.461C531.043 352.461 537.955 342.407 542.108 325.145C546.262 307.883 528.773 285.343 521.533 280.735Z" fill="#FFF3D8"/>
</g>
<path d="M483.935 319.949L530.469 349.887C530.508 349.821 530.549 349.752 530.591 349.681C531.279 348.509 532.249 346.758 533.348 344.473C535.547 339.901 538.265 333.196 540.306 324.712C542.215 316.779 539.168 307.353 534.482 299.111C532.164 295.034 529.498 291.341 526.978 288.396C524.495 285.493 522.234 283.41 520.654 282.373C520.116 282.15 519.784 282.163 519.567 282.217C519.309 282.28 518.965 282.463 518.518 282.936C517.553 283.958 516.639 285.73 515.438 288.178C515.361 288.336 515.282 288.497 515.202 288.66C512.967 293.229 509.946 299.405 504.035 302.751C498.981 305.611 493.612 310.275 489.451 314.299C487.384 316.299 485.641 318.115 484.415 319.431C484.245 319.614 484.085 319.787 483.935 319.949Z" stroke="#52003B" stroke-width="3.70681"/>
<g filter="url(#filter3_i_7_818)">
<path d="M523.477 296.752C518.963 294.708 518.882 305.601 511.955 309.521C505.365 313.25 498.171 321.531 498.171 321.531L529.429 341.641C529.429 341.641 533.754 335.349 536.354 324.546C538.953 313.743 528.008 299.637 523.477 296.752Z" fill="#FF6C6C"/>
</g>
<path d="M499.947 321.294L529.069 340.03C529.094 339.989 529.119 339.946 529.145 339.901C529.576 339.168 530.183 338.072 530.871 336.642C532.247 333.781 533.948 329.585 535.226 324.275C536.42 319.31 534.513 313.411 531.581 308.253C530.13 305.702 528.461 303.39 526.884 301.547C525.331 299.731 523.916 298.427 522.927 297.778C522.59 297.638 522.382 297.646 522.246 297.68C522.085 297.719 521.869 297.834 521.59 298.13C520.986 298.77 520.414 299.879 519.662 301.411C519.614 301.51 519.565 301.61 519.515 301.712C518.116 304.572 516.225 308.437 512.526 310.531C509.363 312.321 506.002 315.24 503.399 317.758C502.105 319.01 501.014 320.146 500.247 320.97C500.141 321.084 500.04 321.193 499.947 321.294Z" stroke="#52003B" stroke-width="2.31986"/>
<g filter="url(#filter4_i_7_818)">
<path d="M535.94 406.381C535.94 406.79 535.122 407.199 534.815 406.995L530.317 403.416C529.396 405.563 528.272 407.506 526.841 409.244C526.738 409.346 526.636 409.551 526.534 409.653C526.534 409.755 526.636 409.857 526.636 409.96C527.454 411.595 528.476 412.618 529.703 413.742C530.521 414.56 531.339 415.276 532.055 415.991C532.259 416.298 531.646 417.116 531.237 417.014L521.32 414.151C519.173 415.582 516.719 416.911 513.857 418.036C513.448 418.445 513.141 418.854 512.834 419.263C512.119 420.285 511.914 421.205 511.812 422.33C511.71 423.046 511.608 423.761 511.505 424.477C511.403 424.681 510.381 424.681 510.279 424.477L507.314 420.183C498.828 422.33 487.582 423.455 472.554 423.455C449.755 423.455 435.545 420.899 426.65 415.991C426.037 417.014 425.628 418.138 425.219 419.467C424.912 420.49 424.503 421.614 424.197 422.637C423.992 422.943 423.072 422.739 422.97 422.33L421.436 413.231L417.04 411.493L411.315 409.244C410.906 409.039 410.906 408.119 411.315 408.017C412.031 407.915 412.746 407.813 413.462 407.813C413.871 407.813 414.178 407.71 414.587 407.71C415.404 407.608 416.222 407.506 417.04 407.301C415.711 405.154 414.587 402.905 413.871 400.554L409.27 403.621C408.964 403.825 408.146 403.314 408.248 402.905C408.759 401.883 409.27 400.963 409.782 399.94C410.599 398.407 411.315 397.078 411.52 395.34C411.724 393.602 411.622 391.864 411.724 390.126C411.724 389.921 411.724 389.717 411.724 389.513C411.008 382.867 411.008 375.2 411.008 366.51C411.008 347.596 417.04 333.181 427.673 323.571C438.305 313.859 453.743 308.849 472.758 308.849C491.774 308.849 507.212 313.961 517.844 323.571C528.476 333.181 534.508 347.596 534.508 366.51C534.508 375.404 534.508 383.174 533.793 390.024C533.793 391.148 533.588 392.375 533.588 393.5C533.588 395.238 533.281 396.976 533.384 398.714C533.486 400.452 534.099 401.781 534.815 403.416C535.019 404.337 535.531 405.359 535.94 406.381Z" fill="#FFF3D8"/>
</g>
<path d="M535.94 406.381C535.94 406.79 535.122 407.199 534.815 406.995L530.317 403.416C529.396 405.563 528.272 407.506 526.841 409.244C526.738 409.346 526.636 409.551 526.534 409.653C526.534 409.755 526.636 409.857 526.636 409.96C527.454 411.595 528.476 412.618 529.703 413.742C530.521 414.56 531.339 415.276 532.055 415.991C532.259 416.298 531.646 417.116 531.237 417.014L521.32 414.151C519.173 415.582 516.719 416.911 513.857 418.036C513.448 418.445 513.141 418.854 512.834 419.263C512.119 420.285 511.914 421.205 511.812 422.33C511.71 423.046 511.608 423.761 511.505 424.477C511.403 424.681 510.381 424.681 510.279 424.477L507.314 420.183C498.828 422.33 487.582 423.455 472.554 423.455C449.755 423.455 435.545 420.899 426.65 415.991C426.037 417.014 425.628 418.138 425.219 419.467C424.912 420.49 424.503 421.614 424.197 422.637C423.992 422.943 423.072 422.739 422.97 422.33L421.436 413.231L417.04 411.493L411.315 409.244C410.906 409.039 410.906 408.119 411.315 408.017C412.031 407.915 412.746 407.813 413.462 407.813C413.871 407.813 414.178 407.71 414.587 407.71C415.404 407.608 416.222 407.506 417.04 407.301C415.711 405.154 414.587 402.905 413.871 400.554L409.27 403.621C408.964 403.825 408.146 403.314 408.248 402.905C408.759 401.883 409.27 400.963 409.782 399.94C410.599 398.407 411.315 397.078 411.52 395.34C411.724 393.602 411.622 391.864 411.724 390.126C411.724 389.921 411.724 389.717 411.724 389.513C411.008 382.867 411.008 375.2 411.008 366.51C411.008 347.596 417.04 333.181 427.673 323.571C438.305 313.859 453.743 308.849 472.758 308.849C491.774 308.849 507.212 313.961 517.844 323.571C528.476 333.181 534.508 347.596 534.508 366.51C534.508 375.404 534.508 383.174 533.793 390.024C533.793 391.148 533.588 392.375 533.588 393.5C533.588 395.238 533.281 396.976 533.384 398.714C533.486 400.452 534.099 401.781 534.815 403.416C535.019 404.337 535.531 405.359 535.94 406.381Z" stroke="#52003B" stroke-width="3.25128"/>
<path d="M526.321 401.421C526.321 403.4 526.321 420.846 470.603 420.846C414.885 420.846 418.463 401.867 418.463 399.888C418.463 398.795 427.664 416.707 470.603 416.245C513.542 415.783 526.321 400.328 526.321 401.421Z" fill="#BFB6A2"/>
<ellipse cx="471.881" cy="382.17" rx="26.8232" ry="14.6308" fill="white"/>
<path d="M471.882 391.924C476.458 391.924 481.034 399.239 481.034 399.239H462.731C462.731 399.239 467.307 391.924 471.882 391.924Z" fill="#52003B"/>
<path d="M470.556 390.12C467.661 398.081 454.635 395.909 453.187 388.672" stroke="#A59D8C" stroke-width="2.89481" stroke-linecap="round"/>
<path d="M471.069 390.298C467.818 399.239 453.187 396.801 451.562 388.672" stroke="#52003B" stroke-width="3.2513" stroke-linecap="round"/>
<path d="M473.208 390.12C476.103 398.081 489.13 395.909 490.577 388.672" stroke="#A59D8C" stroke-width="2.89481" stroke-linecap="round"/>
<path d="M472.695 390.298C475.947 399.239 490.577 396.801 492.203 388.672" stroke="#52003B" stroke-width="3.2513" stroke-linecap="round"/>
<path d="M485.7 379.484C485.7 384.926 479.877 391.924 472.695 391.924C465.512 391.924 459.689 384.926 459.689 379.484C459.689 376.478 465.512 374.042 472.695 374.042C479.877 374.042 485.7 376.478 485.7 379.484Z" fill="#52003B"/>
<path d="M482.448 379.272C482.448 381.251 478.081 378.105 472.694 378.105C467.307 378.105 462.94 381.251 462.94 379.272C462.94 378.179 467.307 375.667 472.694 375.667C478.081 375.667 482.448 378.179 482.448 379.272Z" fill="#8D8D8D"/>
<circle cx="464.566" cy="387.047" r="1.62565" fill="white"/>
<circle cx="480.823" cy="387.047" r="1.62565" fill="white"/>
<path d="M462.94 398.426C469.924 400.547 473.839 400.641 480.823 398.426" stroke="#52003B" stroke-width="3.2513" stroke-linecap="round"/>
<path d="M424.163 361.448C423.218 364.545 437.753 354.212 447.338 358.669C453.578 361.57 454.455 375.721 459.268 367.121C461.261 357.003 452.766 352.792 446.445 352.267C433.636 351.205 424.75 355.936 424.163 361.448Z" fill="#52003B"/>
<path d="M520.128 361.719C521.073 364.815 506.538 354.483 496.953 358.939C490.713 361.841 489.836 375.992 485.023 367.391C483.031 357.274 491.525 353.062 497.846 352.538C510.655 351.475 519.541 356.207 520.128 361.719Z" fill="#52003B"/>
<path d="M476.737 401.883C476.737 403.942 476.11 405.766 475.145 407.053C474.18 408.339 472.925 409.04 471.626 409.04C470.326 409.04 469.071 408.339 468.106 407.053C467.141 405.766 466.514 403.942 466.514 401.883C466.514 401.204 466.477 400.473 466.443 399.812C466.422 399.394 466.402 399.005 466.394 398.675C466.37 397.717 466.427 397.009 466.636 396.47C466.822 395.992 467.15 395.59 467.846 395.282C468.592 394.952 469.769 394.727 471.626 394.727C473.482 394.727 474.659 394.952 475.405 395.282C476.101 395.59 476.429 395.992 476.615 396.47C476.824 397.009 476.881 397.717 476.857 398.675C476.849 399.005 476.829 399.394 476.808 399.812C476.775 400.473 476.737 401.204 476.737 401.883Z" fill="#FF6C6C" stroke="#52003B" stroke-width="2.0447"/>
<path d="M470.138 395.085C470.1 395.024 470.063 394.965 470.027 394.908H473.275C473.239 394.965 473.202 395.024 473.164 395.085C472.832 395.618 472.427 396.313 472.176 396.906C471.957 397.421 471.786 398.023 471.651 398.632C471.517 398.023 471.345 397.421 471.127 396.906C470.875 396.313 470.47 395.618 470.138 395.085Z" fill="#52003B" stroke="#52003B" stroke-width="0.972126"/>
<g filter="url(#filter5_i_7_818)">
<path d="M439.308 408.94C439.651 406.754 440.597 404.921 442.322 403.549C442.692 403.255 442.599 403.087 442.292 402.788C439.567 400.115 438.73 395.994 440.166 392.309C441.733 388.301 445.685 385.474 449.645 385.503C453.566 385.55 456.781 387.893 458.229 391.647C459.351 394.567 462.139 394.551 464.457 394.866C471.192 395.741 477.952 396.494 484.661 394.45C485.829 394.084 486.57 393.455 487.057 392.179C488.189 389.161 490.501 387.524 493.559 387.231C497.515 386.849 500.967 388.214 503.389 391.512C506.718 396.058 506.062 401.231 502.012 405.061C501.103 405.93 502.725 406.198 502.837 406.922C504.788 410.551 504.809 414.148 502.311 417.483C499.876 420.759 496.029 421.926 492.449 420.782C488.751 419.613 486.586 416.899 486.22 412.94C486.134 412.074 486.484 411.245 485.186 410.826C477.753 408.424 470.159 408.132 462.48 409.008C459.8 409.316 457.374 409.757 457.352 413.455C457.344 414.687 456.524 415.827 455.614 416.716C452.966 419.306 449.827 420.151 446.367 419.012C442.376 417.687 439.855 414.919 439.269 410.479L439.289 410.459L439.27 410.438C439.27 409.925 439.289 409.432 439.308 408.94ZM502.102 391.833C502.064 391.79 502.025 391.768 501.987 391.726C501.949 391.683 501.911 391.64 501.852 391.597C501.814 391.575 501.775 391.532 501.756 391.511C500.15 389.785 498.306 388.564 495.922 388.411C494.4 388.147 492.939 388.337 491.52 389.002C490.844 389.489 490.092 389.892 489.492 390.485C487.876 392.108 487.719 395.163 484.799 395.524C476.754 397.619 468.751 397.085 460.782 395.156C460.703 395.132 460.626 395.088 460.567 395.065C460.527 395.064 460.468 395.041 460.428 395.04C458.544 394.33 457.4 393.012 456.679 391.053C455.758 388.593 453.544 387.666 451.24 387.002C450.567 386.915 449.913 386.828 449.24 386.72C445.746 386.462 441.269 390.544 441.052 394.131C441.027 394.253 440.982 394.395 440.957 394.518C440.93 395.215 440.903 395.933 440.876 396.631C440.909 396.796 440.924 396.941 440.957 397.107C440.937 397.126 440.936 397.147 440.954 397.189C441.109 397.811 441.264 398.454 441.419 399.076C441.675 400.196 442.277 401.102 443.022 401.912C443.826 402.764 443.779 403.461 442.95 404.313C440.607 406.75 439.839 409.638 441.006 412.929C442.158 416.117 445.592 418.468 449.097 418.439C452.482 418.425 454.933 416.814 456.33 413.621C457.094 411.863 456.711 409.403 459.263 408.782C467.826 406.666 476.304 407.258 484.694 409.635C485.817 409.966 487.281 410.187 487.25 412.035C487.175 416.059 489.271 419.037 492.777 420.014C496.559 421.063 500.286 419.419 502.235 415.836C504.013 412.576 503.411 408.546 500.744 405.937C500.207 405.403 500.144 404.969 500.779 404.5C501.988 403.622 503.042 402.615 503.577 401.135C504.977 398.374 504.339 393.727 502.334 392.026C502.296 391.984 502.257 391.941 502.238 391.92C502.179 391.918 502.14 391.875 502.102 391.833Z" fill="#FFF3D8"/>
<path d="M502.102 391.833C502.064 391.79 502.025 391.768 501.987 391.726C501.949 391.683 501.911 391.64 501.852 391.597C501.814 391.575 501.775 391.532 501.756 391.511C500.15 389.785 498.306 388.564 495.922 388.411C494.4 388.147 492.939 388.337 491.52 389.002C490.844 389.489 490.092 389.892 489.492 390.485C487.876 392.108 487.719 395.163 484.799 395.524C476.754 397.619 468.751 397.085 460.782 395.156C460.703 395.132 460.626 395.088 460.567 395.065C460.527 395.064 460.468 395.041 460.428 395.04C458.544 394.33 457.4 393.012 456.679 391.053C455.758 388.593 453.544 387.666 451.24 387.002C450.567 386.915 449.913 386.828 449.24 386.72C445.746 386.462 441.269 390.544 441.052 394.131C441.027 394.253 440.982 394.395 440.957 394.518L440.876 396.631C440.909 396.796 440.924 396.941 440.957 397.107C440.937 397.126 440.936 397.147 440.954 397.189C441.109 397.811 441.264 398.454 441.419 399.076C441.675 400.196 442.277 401.102 443.022 401.912C443.826 402.764 443.779 403.461 442.95 404.313C440.607 406.75 439.839 409.638 441.006 412.929C442.158 416.117 445.592 418.468 449.097 418.439C452.482 418.425 454.933 416.814 456.33 413.621C457.094 411.863 456.711 409.403 459.263 408.782C467.826 406.666 476.304 407.258 484.694 409.635C485.817 409.966 487.281 410.187 487.25 412.035C487.175 416.059 489.271 419.037 492.777 420.014C496.559 421.063 500.286 419.419 502.235 415.836C504.013 412.576 503.411 408.546 500.744 405.937C500.207 405.403 500.144 404.969 500.779 404.5C501.988 403.622 503.042 402.615 503.577 401.135C504.977 398.374 504.339 393.727 502.334 392.026L502.238 391.92C502.179 391.918 502.14 391.875 502.102 391.833Z" fill="#FFF3D8"/>
</g>
<path d="M440.957 394.518C440.982 394.395 441.027 394.253 441.052 394.131C441.269 390.544 445.746 386.462 449.24 386.72C449.913 386.828 450.567 386.915 451.24 387.002C453.544 387.666 455.758 388.593 456.679 391.053C457.4 393.012 458.544 394.33 460.428 395.04C460.468 395.041 460.527 395.064 460.567 395.065C460.626 395.088 460.703 395.132 460.782 395.156C468.751 397.085 476.754 397.619 484.799 395.524C487.719 395.163 487.876 392.108 489.492 390.485C490.092 389.892 490.844 389.489 491.52 389.002C492.939 388.337 494.4 388.147 495.922 388.411C498.306 388.564 500.15 389.785 501.756 391.511C501.775 391.532 501.814 391.575 501.852 391.597C501.911 391.64 501.949 391.683 501.987 391.726C502.025 391.768 502.064 391.79 502.102 391.833C502.14 391.875 502.179 391.918 502.238 391.92M440.957 394.518C440.93 395.215 440.903 395.933 440.876 396.631M440.957 394.518L440.876 396.631M440.876 396.631C440.909 396.796 440.924 396.941 440.957 397.107C440.937 397.126 440.936 397.147 440.954 397.189C441.109 397.811 441.264 398.454 441.419 399.076C441.675 400.196 442.277 401.102 443.022 401.912C443.826 402.764 443.779 403.461 442.95 404.313C440.607 406.75 439.839 409.638 441.006 412.929C442.158 416.117 445.592 418.468 449.097 418.439C452.482 418.425 454.933 416.814 456.33 413.621C457.094 411.863 456.711 409.403 459.263 408.782C467.826 406.666 476.304 407.258 484.694 409.635C485.817 409.966 487.281 410.187 487.25 412.035C487.175 416.059 489.271 419.037 492.777 420.014C496.559 421.063 500.286 419.419 502.235 415.836C504.013 412.576 503.411 408.546 500.744 405.937C500.207 405.403 500.144 404.969 500.779 404.5C501.988 403.622 503.042 402.615 503.577 401.135C504.977 398.374 504.339 393.727 502.334 392.026M502.334 392.026C502.296 391.984 502.257 391.941 502.238 391.92M502.334 392.026L502.238 391.92M439.308 408.94C439.651 406.754 440.597 404.921 442.322 403.549C442.692 403.255 442.599 403.087 442.292 402.788C439.567 400.115 438.73 395.994 440.166 392.309C441.733 388.301 445.685 385.474 449.645 385.503C453.566 385.55 456.781 387.893 458.229 391.647C459.351 394.567 462.139 394.551 464.457 394.866C471.192 395.741 477.952 396.494 484.661 394.45C485.829 394.084 486.57 393.455 487.057 392.179C488.189 389.161 490.501 387.524 493.559 387.231C497.515 386.849 500.967 388.214 503.389 391.512C506.718 396.058 506.062 401.231 502.012 405.061C501.103 405.93 502.725 406.198 502.837 406.922C504.788 410.551 504.809 414.148 502.311 417.483C499.876 420.759 496.029 421.926 492.449 420.782C488.751 419.613 486.586 416.899 486.22 412.94C486.134 412.074 486.484 411.245 485.186 410.826C477.753 408.424 470.159 408.132 462.48 409.008C459.8 409.316 457.374 409.757 457.352 413.455C457.344 414.687 456.524 415.827 455.614 416.716C452.966 419.306 449.827 420.151 446.367 419.012C442.376 417.687 439.855 414.919 439.269 410.479L439.289 410.459L439.27 410.438C439.27 409.925 439.289 409.432 439.308 408.94Z" stroke="#52003B" stroke-width="3.01925"/>
<path d="M446.898 392.095C446.169 393.11 444.426 397.028 443.455 396.33C442.484 395.633 443.318 391.126 447.724 389.043C449.402 388.249 452.183 388.596 451.758 390.737C451.555 391.759 448.806 389.44 446.898 392.095Z" fill="white"/>
<path d="M493.737 392.445C490.602 393.413 489.932 397.17 489.229 396.202C488.527 395.235 489.884 390.776 494.721 390.183C496.564 389.957 499.945 391.601 498.869 393.501C498.356 394.407 495.954 391.759 493.737 392.445Z" fill="white"/>
<path d="M471.644 401.092C468.918 401.094 462.607 400.436 462.97 399.033C463.424 397.278 467.954 398.917 472.109 398.819C473.692 398.781 479.861 398.747 479.757 400.337C479.687 401.396 473.558 401.091 471.644 401.092Z" fill="white"/>
<path fill-rule="evenodd" clip-rule="evenodd" d="M449.644 37.6816C348.913 56.4588 272.658 144.824 272.658 251C272.658 370.846 369.812 468 489.658 468C532.89 468 573.169 455.358 606.999 433.569C561.409 494.536 488.642 534 406.658 534C268.587 534 156.658 422.071 156.658 284C156.658 145.929 268.587 34 406.658 34C421.316 34 435.679 35.2614 449.644 37.6816Z" fill="#FFF3D8"/>
<path d="M134.658 20C134.658 20 138.77 44.4652 149.158 55C159.725 65.7167 184.658 70 184.658 70C184.658 70 159.747 73.9107 149.158 84.5C138.569 95.0893 134.658 120 134.658 120C134.658 120 129.627 95.032 118.658 84.5C108.246 74.5025 84.6582 70 84.6582 70C84.6582 70 108.261 65.1247 118.658 55C129.425 44.5151 134.658 20 134.658 20Z" fill="#FFF3D8"/>
<path d="M519.158 135C519.158 135 521.502 148.945 527.423 154.95C533.447 161.059 547.658 163.5 547.658 163.5C547.658 163.5 533.459 165.729 527.423 171.765C521.387 177.801 519.158 192 519.158 192C519.158 192 516.291 177.768 510.038 171.765C504.103 166.066 490.658 163.5 490.658 163.5C490.658 163.5 504.112 160.721 510.038 154.95C516.176 148.974 519.158 135 519.158 135Z" fill="#FFF3D8"/>
<path d="M171.158 522C171.158 522 172.68 531.052 176.523 534.95C180.433 538.915 189.658 540.5 189.658 540.5C189.658 540.5 180.441 541.947 176.523 545.865C172.605 549.783 171.158 559 171.158 559C171.158 559 169.297 549.762 165.238 545.865C161.386 542.166 152.658 540.5 152.658 540.5C152.658 540.5 161.391 538.696 165.238 534.95C169.222 531.071 171.158 522 171.158 522Z" fill="#FFF3D8"/>
<circle cx="166.658" cy="462" r="5" fill="#FFF3D8"/>
<circle cx="123.658" cy="369" r="5" fill="#FFF3D8"/>
<circle cx="350.658" cy="270" r="5" fill="#FFF3D8"/>
<circle cx="129.658" cy="210" r="5" fill="#FFF3D8"/>
<circle cx="438.658" cy="169" r="5" fill="#FFF3D8"/>
<circle cx="606.658" cy="260" r="5" fill="#FFF3D8"/>
<circle cx="340.658" cy="20" r="5" fill="#FFF3D8"/>
<circle cx="417.658" cy="564" r="5" fill="#FFF3D8"/>
<path fill-rule="evenodd" clip-rule="evenodd" d="M378.33 354.639C374.233 353.76 370.008 355.738 369.049 360.126C368.091 364.514 370.655 368.68 374.878 369.796C378.388 370.724 387.422 371.441 390.368 371.657C390.697 371.681 390.862 371.693 391.003 371.64C391.126 371.593 391.236 371.51 391.314 371.404C391.403 371.282 391.435 371.12 391.5 370.796C392.079 367.899 393.8 359.002 393.844 355.371C393.896 351.004 390.593 347.36 386.081 347.172C381.568 346.984 378.577 350.456 378.33 354.639Z" fill="#FF6C6C" stroke="#52003B" stroke-width="3.03314" stroke-linecap="round" stroke-linejoin="round"/>
<path d="M373.635 361.357C374.49 362.524 374.903 366.324 373.986 366.995C373.07 367.666 371.197 364.603 370.91 363.353C370.431 361.269 371.449 358.739 372.365 358.068C373.282 357.398 372.781 360.19 373.635 361.357Z" fill="white"/>
<path d="M382.596 352.505C382.528 353.053 381.802 354.106 380.675 353.966C379.548 353.826 380.841 351.792 381.369 350.891C381.776 350.195 383.724 349.277 384.467 350.255C384.822 350.722 382.775 351.07 382.596 352.505Z" fill="white"/>
<circle cx="879.658" cy="220" r="5" fill="#FFF3D8"/>
<circle cx="731.658" cy="114" r="5" fill="#FFF3D8"/>
<circle cx="781.658" cy="351" r="5" fill="#FFF3D8"/>
<circle cx="1384.66" cy="326" r="5" fill="#FFF3D8"/>
<circle cx="1180.66" cy="55" r="5" fill="#FFF3D8"/>
<circle cx="993.658" cy="50" r="5" fill="#FFF3D8"/>
<circle cx="817.658" cy="40" r="5" fill="#FFF3D8"/>
<circle cx="701.658" cy="507" r="5" fill="#FFF3D8"/>
<path d="M1429.66 0C1429.66 0 1433.77 24.4652 1444.16 35C1454.73 45.7167 1479.66 50 1479.66 50C1479.66 50 1454.75 53.9107 1444.16 64.5C1433.57 75.0893 1429.66 100 1429.66 100C1429.66 100 1424.63 75.032 1413.66 64.5C1403.25 54.5025 1379.66 50 1379.66 50C1379.66 50 1403.26 45.1247 1413.66 35C1424.43 24.5151 1429.66 0 1429.66 0Z" fill="#FFF3D8"/>
<path d="M899.158 502C899.158 502 901.502 515.945 907.423 521.95C913.447 528.059 927.658 530.5 927.658 530.5C927.658 530.5 913.459 532.729 907.423 538.765C901.387 544.801 899.158 559 899.158 559C899.158 559 896.291 544.768 890.038 538.765C884.103 533.066 870.658 530.5 870.658 530.5C870.658 530.5 884.112 527.721 890.038 521.95C896.176 515.974 899.158 502 899.158 502Z" fill="#FFF3D8"/>
<path d="M1401.16 413C1401.16 413 1404.32 431.838 1412.32 439.95C1420.46 448.202 1439.66 451.5 1439.66 451.5C1439.66 451.5 1420.48 454.511 1412.32 462.665C1404.17 470.819 1401.16 490 1401.16 490C1401.16 490 1397.28 470.775 1388.84 462.665C1380.82 454.967 1362.66 451.5 1362.66 451.5C1362.66 451.5 1380.83 447.746 1388.84 439.95C1397.13 431.877 1401.16 413 1401.16 413Z" fill="#FFF3D8"/>
<circle cx="1231.66" cy="574" r="5" fill="#FFF3D8"/>
<ellipse cx="1294.86" cy="551.066" rx="82.7417" ry="80.2991" transform="rotate(-59.4618 1294.86 551.066)" fill="url(#paint0_linear_7_818)"/>
<ellipse cx="1326.07" cy="579.959" rx="82.7417" ry="80.2991" transform="rotate(10.7059 1326.07 579.959)" fill="#E1BBFF"/>
<ellipse cx="1197.06" cy="655.911" rx="135.5" ry="131.5" transform="rotate(-56.5574 1197.06 655.911)" fill="url(#paint1_linear_7_818)"/>
<ellipse cx="1245.7" cy="705.756" rx="135.5" ry="131.5" transform="rotate(13.6104 1245.7 705.756)" fill="#E1BBFF"/>
<ellipse cx="135.5" cy="131.5" rx="135.5" ry="131.5" transform="matrix(-0.971918 -0.235318 -0.235318 0.971918 1617.28 494.771)" fill="url(#paint2_linear_7_818)"/>
<ellipse cx="135.5" cy="131.5" rx="135.5" ry="131.5" transform="matrix(-0.971918 -0.235318 -0.235318 0.971918 1594.38 546.845)" fill="#E1BBFF"/>
<ellipse cx="58.8766" cy="57.1385" rx="58.8766" ry="57.1385" transform="matrix(-0.989759 0.142745 0.142745 0.989759 1366.74 695.06)" fill="url(#paint3_linear_7_818)"/>
<ellipse cx="64.0088" cy="69.3666" rx="64.0088" ry="69.3666" transform="matrix(0.33718 0.94144 0.94144 -0.33718 1234 733.665)" fill="#E1BBFF"/>
<ellipse cx="66.2159" cy="64.2612" rx="66.2159" ry="64.2612" transform="matrix(-0.989759 0.142745 0.142745 0.989759 1463.21 565.504)" fill="url(#paint4_linear_7_818)"/>
<ellipse cx="71.9878" cy="78.0135" rx="71.9878" ry="78.0135" transform="matrix(0.33718 0.94144 0.94144 -0.33718 1313.92 608.921)" fill="#E1BBFF"/>
<ellipse cx="51.2253" cy="49.7131" rx="51.2253" ry="49.7131" transform="matrix(-0.989759 0.142745 0.142745 0.989759 1246.99 638.034)" fill="url(#paint5_linear_7_818)"/>
<ellipse cx="55.6905" cy="60.352" rx="55.6905" ry="60.352" transform="matrix(0.33718 0.94144 0.94144 -0.33718 1131.5 671.623)" fill="#E1BBFF"/>
<ellipse cx="161.158" cy="529.5" rx="135.5" ry="131.5" fill="url(#paint6_linear_7_818)"/>
<ellipse cx="171.158" cy="585.5" rx="135.5" ry="131.5" fill="#E1BBFF"/>
<ellipse cx="82.7417" cy="80.2991" rx="82.7417" ry="80.2991" transform="matrix(0.273232 -0.961948 -0.961948 -0.273232 379.784 669.69)" fill="url(#paint7_linear_7_818)"/>
<ellipse cx="82.7417" cy="80.2991" rx="82.7417" ry="80.2991" transform="matrix(-0.812196 -0.583384 -0.583384 0.812196 396.754 548.54)" fill="#E1BBFF"/>
<ellipse cx="135.5" cy="131.5" rx="135.5" ry="131.5" transform="matrix(-0.339267 -0.94069 -0.94069 0.339267 565.83 736.35)" fill="url(#paint8_linear_7_818)"/>
<ellipse cx="135.5" cy="131.5" rx="135.5" ry="131.5" transform="matrix(-1 0 0 1 472.658 559)" fill="#E1BBFF"/>
<ellipse cx="72.1525" cy="70.0226" rx="72.1525" ry="70.0226" transform="matrix(-0.70491 -0.709297 -0.709297 0.70491 269.658 662.355)" fill="url(#paint9_linear_7_818)"/>
<ellipse cx="72.1525" cy="70.0226" rx="72.1525" ry="70.0226" transform="matrix(-0.977954 -0.208822 -0.208822 0.977954 411.172 659.134)" fill="url(#paint10_linear_7_818)"/>
<ellipse cx="78.4419" cy="85.0079" rx="78.4419" ry="85.0079" transform="matrix(-0.554544 0.832155 0.832155 0.554544 134.657 560)" fill="#E1BBFF"/>
<ellipse cx="58.8766" cy="57.1385" rx="58.8766" ry="57.1385" transform="matrix(-0.989759 0.142745 0.142745 0.989759 132.744 547.06)" fill="url(#paint11_linear_7_818)"/>
<ellipse cx="64.0088" cy="69.3666" rx="64.0088" ry="69.3666" transform="matrix(0.33718 0.94144 0.94144 -0.33718 0 585.665)" fill="#E1BBFF"/>
<ellipse cx="78.4419" cy="85.0079" rx="78.4419" ry="85.0079" transform="matrix(-0.00968491 0.999953 0.999953 0.00968491 242.178 647.185)" fill="#E1BBFF"/>
<ellipse cx="72.1525" cy="70.0226" rx="72.1525" ry="70.0226" transform="matrix(-0.977954 -0.208822 -0.208822 0.977954 624.172 638.134)" fill="url(#paint12_linear_7_818)"/>
<ellipse cx="78.4419" cy="85.0079" rx="78.4419" ry="85.0079" transform="matrix(-0.00968491 0.999953 0.999953 0.00968491 455.177 626.185)" fill="#E1BBFF"/>
<defs>
<filter id="filter0_i_7_818" x="403.392" y="280.33" width="61.6392" height="72.1309" filterUnits="userSpaceOnUse" color-interpolation-filters="sRGB">
<feFlood flood-opacity="0" result="BackgroundImageFix"/>
<feBlend mode="normal" in="SourceGraphic" in2="BackgroundImageFix" result="shape"/>
<feColorMatrix in="SourceAlpha" type="matrix" values="0 0 0 0 0 0 0 0 0 0 0 0 0 0 0 0 0 0 127 0" result="hardAlpha"/>
<feOffset dx="-4.0894" dy="6.1341"/>
<feComposite in2="hardAlpha" operator="arithmetic" k2="-1" k3="1"/>
<feColorMatrix type="matrix" values="0 0 0 0 1 0 0 0 0 1 0 0 0 0 1 0 0 0 1 0"/>
<feBlend mode="normal" in2="shape" result="effect1_innerShadow_7_818"/>
</filter>
<filter id="filter1_i_7_818" x="409.382" y="296.499" width="38.5762" height="45.1418" filterUnits="userSpaceOnUse" color-interpolation-filters="sRGB">
<feFlood flood-opacity="0" result="BackgroundImageFix"/>
<feBlend mode="normal" in="SourceGraphic" in2="BackgroundImageFix" result="shape"/>
<feColorMatrix in="SourceAlpha" type="matrix" values="0 0 0 0 0 0 0 0 0 0 0 0 0 0 0 0 0 0 127 0" result="hardAlpha"/>
<feOffset dx="-1.02235" dy="8.1788"/>
<feComposite in2="hardAlpha" operator="arithmetic" k2="-1" k3="1"/>
<feColorMatrix type="matrix" values="0 0 0 0 0 0 0 0 0 0 0 0 0 0 0 0 0 0 0.25 0"/>
<feBlend mode="normal" in2="shape" result="effect1_innerShadow_7_818"/>
</filter>
<filter id="filter2_i_7_818" x="481.099" y="280.33" width="61.6392" height="72.1309" filterUnits="userSpaceOnUse" color-interpolation-filters="sRGB">
<feFlood flood-opacity="0" result="BackgroundImageFix"/>
<feBlend mode="normal" in="SourceGraphic" in2="BackgroundImageFix" result="shape"/>
<feColorMatrix in="SourceAlpha" type="matrix" values="0 0 0 0 0 0 0 0 0 0 0 0 0 0 0 0 0 0 127 0" result="hardAlpha"/>
<feOffset dx="6.1341" dy="4.0894"/>
<feComposite in2="hardAlpha" operator="arithmetic" k2="-1" k3="1"/>
<feColorMatrix type="matrix" values="0 0 0 0 1 0 0 0 0 1 0 0 0 0 1 0 0 0 1 0"/>
<feBlend mode="normal" in2="shape" result="effect1_innerShadow_7_818"/>
</filter>
<filter id="filter3_i_7_818" x="498.171" y="296.499" width="38.5762" height="45.1418" filterUnits="userSpaceOnUse" color-interpolation-filters="sRGB">
<feFlood flood-opacity="0" result="BackgroundImageFix"/>
<feBlend mode="normal" in="SourceGraphic" in2="BackgroundImageFix" result="shape"/>
<feColorMatrix in="SourceAlpha" type="matrix" values="0 0 0 0 0 0 0 0 0 0 0 0 0 0 0 0 0 0 127 0" result="hardAlpha"/>
<feOffset dx="1.02235" dy="8.1788"/>
<feComposite in2="hardAlpha" operator="arithmetic" k2="-1" k3="1"/>
<feColorMatrix type="matrix" values="0 0 0 0 0 0 0 0 0 0 0 0 0 0 0 0 0 0 0.25 0"/>
<feBlend mode="normal" in2="shape" result="effect1_innerShadow_7_818"/>
</filter>
<filter id="filter4_i_7_818" x="406.613" y="307.223" width="130.952" height="119.032" filterUnits="userSpaceOnUse" color-interpolation-filters="sRGB">
<feFlood flood-opacity="0" result="BackgroundImageFix"/>
<feBlend mode="normal" in="SourceGraphic" in2="BackgroundImageFix" result="shape"/>
<feColorMatrix in="SourceAlpha" type="matrix" values="0 0 0 0 0 0 0 0 0 0 0 0 0 0 0 0 0 0 127 0" result="hardAlpha"/>
<feOffset dy="10.2235"/>
<feComposite in2="hardAlpha" operator="arithmetic" k2="-1" k3="1"/>
<feColorMatrix type="matrix" values="0 0 0 0 1 0 0 0 0 1 0 0 0 0 1 0 0 0 1 0"/>
<feBlend mode="normal" in2="shape" result="effect1_innerShadow_7_818"/>
</filter>
<filter id="filter5_i_7_818" x="437.672" y="383.993" width="69.3577" height="38.7273" filterUnits="userSpaceOnUse" color-interpolation-filters="sRGB">
<feFlood flood-opacity="0" result="BackgroundImageFix"/>
<feBlend mode="normal" in="SourceGraphic" in2="BackgroundImageFix" result="shape"/>
<feColorMatrix in="SourceAlpha" type="matrix" values="0 0 0 0 0 0 0 0 0 0 0 0 0 0 0 0 0 0 127 0" result="hardAlpha"/>
<feOffset dy="1.85641"/>
<feComposite in2="hardAlpha" operator="arithmetic" k2="-1" k3="1"/>
<feColorMatrix type="matrix" values="0 0 0 0 0 0 0 0 0 0 0 0 0 0 0 0 0 0 0.25 0"/>
<feBlend mode="normal" in2="shape" result="effect1_innerShadow_7_818"/>
</filter>
<linearGradient id="paint0_linear_7_818" x1="1368.14" y1="481.758" x2="1226.47" y2="544.959" gradientUnits="userSpaceOnUse">
<stop offset="0.288133" stop-color="white"/>
<stop offset="1" stop-color="white" stop-opacity="0"/>
</linearGradient>
<linearGradient id="paint1_linear_7_818" x1="1317.06" y1="542.411" x2="1085.06" y2="645.911" gradientUnits="userSpaceOnUse">
<stop offset="0.288133" stop-color="white"/>
<stop offset="1" stop-color="white" stop-opacity="0"/>
</linearGradient>
<linearGradient id="paint2_linear_7_818" x1="255.5" y1="18" x2="23.5" y2="121.5" gradientUnits="userSpaceOnUse">
<stop offset="0.288133" stop-color="white"/>
<stop offset="1" stop-color="white" stop-opacity="0"/>
</linearGradient>
<linearGradient id="paint3_linear_7_818" x1="81.9893" y1="-18.6358" x2="51.4441" y2="95.9898" gradientUnits="userSpaceOnUse">
<stop offset="0.288133" stop-color="white"/>
<stop offset="1" stop-color="white" stop-opacity="0"/>
</linearGradient>
<linearGradient id="paint4_linear_7_818" x1="92.2096" y1="-20.9588" x2="57.8569" y2="107.955" gradientUnits="userSpaceOnUse">
<stop offset="0.288133" stop-color="white"/>
<stop offset="1" stop-color="white" stop-opacity="0"/>
</linearGradient>
<linearGradient id="paint5_linear_7_818" x1="71.3343" y1="-16.214" x2="44.7587" y2="83.5154" gradientUnits="userSpaceOnUse">
<stop offset="0.288133" stop-color="white"/>
<stop offset="1" stop-color="white" stop-opacity="0"/>
</linearGradient>
<linearGradient id="paint6_linear_7_818" x1="281.158" y1="416" x2="49.1582" y2="519.5" gradientUnits="userSpaceOnUse">
<stop offset="0.288133" stop-color="white"/>
<stop offset="1" stop-color="white" stop-opacity="0"/>
</linearGradient>
<linearGradient id="paint7_linear_7_818" x1="156.018" y1="10.9915" x2="14.35" y2="74.1927" gradientUnits="userSpaceOnUse">
<stop offset="0.288133" stop-color="white"/>
<stop offset="1" stop-color="white" stop-opacity="0"/>
</linearGradient>
<linearGradient id="paint8_linear_7_818" x1="255.5" y1="18" x2="23.5" y2="121.5" gradientUnits="userSpaceOnUse">
<stop offset="0.288133" stop-color="white"/>
<stop offset="1" stop-color="white" stop-opacity="0"/>
</linearGradient>
<linearGradient id="paint9_linear_7_818" x1="100.477" y1="-22.8379" x2="63.0441" y2="117.634" gradientUnits="userSpaceOnUse">
<stop offset="0.288133" stop-color="white"/>
<stop offset="1" stop-color="white" stop-opacity="0"/>
</linearGradient>
<linearGradient id="paint10_linear_7_818" x1="100.477" y1="-22.8379" x2="63.0441" y2="117.634" gradientUnits="userSpaceOnUse">
<stop offset="0.288133" stop-color="white"/>
<stop offset="1" stop-color="white" stop-opacity="0"/>
</linearGradient>
<linearGradient id="paint11_linear_7_818" x1="81.9893" y1="-18.6358" x2="51.4441" y2="95.9898" gradientUnits="userSpaceOnUse">
<stop offset="0.288133" stop-color="white"/>
<stop offset="1" stop-color="white" stop-opacity="0"/>
</linearGradient>
<linearGradient id="paint12_linear_7_818" x1="100.477" y1="-22.8379" x2="63.0441" y2="117.634" gradientUnits="userSpaceOnUse">
<stop offset="0.288133" stop-color="white"/>
<stop offset="1" stop-color="white" stop-opacity="0"/>
</linearGradient>
</defs>
</svg>