<svg width="127" height="133" viewBox="0 0 127 133" fill="none" xmlns="http://www.w3.org/2000/svg">
<path fill-rule="evenodd" clip-rule="evenodd" d="M71.6659 28.9056C68.2619 15.4779 56.2059 5.86416 41.8016 9.45957C27.3972 13.055 18.814 26.7628 21.7002 40.9076C24.1 52.6678 35.2239 80.4821 38.906 89.5252C39.3177 90.5368 39.5238 91.0427 39.8886 91.3822C40.2067 91.6784 40.6153 91.8813 41.0439 91.9559C41.5349 92.0413 42.0621 91.8995 43.1172 91.6163C52.5471 89.084 81.4291 81.1347 92.2488 75.9386C105.262 69.6886 111.214 54.5611 105.153 40.9167C99.092 27.2723 84.4208 23.5016 71.6659 28.9056Z" fill="#FF6C6C" stroke="#52003B" stroke-width="10.0263" stroke-linecap="round" stroke-linejoin="round"/>
<path d="M44.878 24.8512C42.6744 29.0928 32.0207 35.8897 28.6895 34.1591C25.3583 32.4284 31.6869 22.387 34.9687 19.7031C40.4386 15.2299 49.4266 14.5352 52.7578 16.2658C56.0891 17.9965 47.0817 20.6095 44.878 24.8512Z" fill="white"/>
<path d="M84.2428 38.4157C82.5194 39.0172 78.3359 38.4127 77.0989 34.8684C75.8618 31.3241 83.7819 32.1703 87.2237 32.4126C89.8833 32.5999 95.459 37.0226 93.6531 40.6596C92.7912 42.3952 88.7558 36.8405 84.2428 38.4157Z" fill="white"/>
<g filter="url(#filter0_i_0_289)">
<path d="M58.1378 114.512C56.3411 112.46 55.3546 110.116 55.4201 107.399C55.4342 106.817 55.2017 106.772 54.6756 106.826C49.9929 107.291 45.4321 104.825 43.081 100.554C40.5279 95.9028 40.976 89.9293 44.1344 86.2046C47.2787 82.5332 52.0365 81.3432 56.7334 82.9402C60.383 84.1864 62.5715 81.5358 64.7014 79.5923C70.8538 73.9113 76.91 68.1103 80.2794 60.1478C80.857 58.7526 80.8475 57.5543 80.0255 56.0851C78.0643 52.629 78.3435 49.1468 80.4827 46.022C83.2488 41.9762 87.2691 39.7898 92.3042 40.1059C99.2368 40.5489 103.612 45.2595 104.035 52.1188C104.139 53.6663 105.675 52.343 106.447 52.8093C111.424 53.8325 114.843 56.6555 116.025 61.655C117.199 66.5489 115.262 71.1119 111.35 73.5941C107.32 76.1686 103.041 76.0727 99.0067 73.289C98.1189 72.6857 97.6116 71.6989 96.1885 72.5951C88.0399 77.7296 81.7607 84.6842 76.5196 92.6422C74.6927 95.421 73.1923 98.065 76.6729 101.009C77.8331 101.991 78.263 103.668 78.3852 105.232C78.7425 109.785 77.0613 113.422 73.2476 115.795C68.8398 118.524 64.2275 118.722 59.5634 115.766L59.561 115.731L59.5258 115.732C59.0396 115.326 58.5887 114.919 58.1378 114.512ZM91.5904 41.5764C91.5199 41.5788 91.4683 41.5983 91.3978 41.6008C91.3274 41.6033 91.2569 41.6058 91.17 41.6264C91.1183 41.6459 91.0479 41.6484 91.0127 41.6496C88.11 41.8048 85.4963 42.5844 83.4674 44.7182C82.0138 45.9504 81.0393 47.483 80.5463 49.3511C80.4736 50.376 80.26 51.4059 80.3469 52.4427C80.6055 55.2538 83.3721 57.8179 81.4043 60.8661C77.0276 70.1331 70.1965 77.2835 62.0714 83.2984C61.9869 83.3543 61.8836 83.3932 61.8155 83.4308C61.7826 83.4672 61.7145 83.5049 61.6816 83.5413C59.5211 84.7632 57.37 84.8038 54.9464 83.9374C51.891 82.8641 49.2632 84.2259 46.8139 85.8809C46.1987 86.4491 45.5999 86.9989 44.9658 87.5501C41.9601 90.6525 42.2824 98.1147 45.5046 101.156C45.6009 101.276 45.6996 101.431 45.7959 101.551C46.4347 102.128 47.0923 102.722 47.7311 103.299C47.9143 103.398 48.0622 103.498 48.2454 103.598C48.2478 103.633 48.2665 103.65 48.3206 103.666C49.0322 104.011 49.7625 104.373 50.4741 104.718C51.7353 105.361 53.0692 105.508 54.4242 105.442C55.8662 105.356 56.4885 105.951 56.639 107.409C57.0925 111.553 59.218 114.562 63.2551 116.059C67.1818 117.489 72.1204 116.099 74.8631 112.759C77.526 109.546 77.939 105.953 76.0224 102.107C74.9631 99.9943 72.3328 98.4125 73.7628 95.5067C78.5293 85.7323 85.7925 78.179 94.6738 72.1197C95.8737 71.3195 97.2404 70.108 98.9643 71.5983C102.713 74.8504 107.186 75.2215 110.883 72.6764C114.865 69.9273 116.255 65.1016 114.407 60.4253C112.727 56.1661 108.439 53.5499 103.862 54.0109C102.932 54.0966 102.472 53.8132 102.53 52.8417C102.654 51.0042 102.535 49.2105 101.558 47.5352C100.052 44.0278 95.1505 40.9573 91.9567 41.5106C91.8863 41.5131 91.8158 41.5155 91.7806 41.5168C91.7313 41.5714 91.6608 41.5739 91.5904 41.5764Z" fill="#FFF3D8"/>
<path d="M91.5904 41.5764C91.5199 41.5788 91.4683 41.5983 91.3978 41.6008C91.3274 41.6033 91.2569 41.6058 91.17 41.6264C91.1183 41.6459 91.0479 41.6484 91.0127 41.6496C88.11 41.8048 85.4963 42.5844 83.4674 44.7182C82.0138 45.9504 81.0393 47.483 80.5463 49.3511C80.4736 50.376 80.26 51.4059 80.3469 52.4427C80.6055 55.2538 83.3721 57.8179 81.4043 60.8661C77.0276 70.1331 70.1965 77.2835 62.0714 83.2984C61.9869 83.3543 61.8836 83.3932 61.8155 83.4308C61.7826 83.4672 61.7145 83.5049 61.6816 83.5413C59.5211 84.7632 57.37 84.8038 54.9464 83.9374C51.891 82.8641 49.2632 84.2259 46.8139 85.8809C46.1987 86.4491 45.5999 86.9989 44.9658 87.5501C41.9601 90.6525 42.2824 98.1147 45.5046 101.156C45.6009 101.276 45.6996 101.431 45.7959 101.551L47.7311 103.299C47.9143 103.398 48.0622 103.498 48.2454 103.598C48.2478 103.633 48.2665 103.65 48.3206 103.666C49.0322 104.011 49.7625 104.373 50.4741 104.718C51.7353 105.361 53.0692 105.508 54.4242 105.442C55.8662 105.356 56.4885 105.951 56.639 107.409C57.0925 111.553 59.218 114.562 63.2551 116.059C67.1818 117.489 72.1204 116.099 74.8631 112.759C77.526 109.546 77.939 105.953 76.0224 102.107C74.9631 99.9943 72.3328 98.4125 73.7628 95.5067C78.5293 85.7323 85.7925 78.179 94.6738 72.1197C95.8737 71.3195 97.2404 70.108 98.9643 71.5983C102.713 74.8504 107.186 75.2215 110.883 72.6764C114.865 69.9273 116.255 65.1016 114.407 60.4253C112.727 56.1661 108.439 53.5499 103.862 54.0109C102.932 54.0966 102.472 53.8132 102.53 52.8417C102.654 51.0042 102.535 49.2105 101.558 47.5352C100.052 44.0278 95.1505 40.9573 91.9567 41.5106L91.7806 41.5168C91.7313 41.5714 91.6608 41.5739 91.5904 41.5764Z" fill="#FFF3D8"/>
</g>
<path d="M45.7959 101.551C45.6996 101.431 45.6009 101.276 45.5046 101.156C42.2824 98.1147 41.9601 90.6525 44.9658 87.5501C45.5999 86.9989 46.1987 86.4491 46.8139 85.8809C49.2632 84.2259 51.891 82.8641 54.9464 83.9374C57.37 84.8038 59.5211 84.7632 61.6816 83.5413C61.7145 83.5049 61.7826 83.4672 61.8155 83.4308C61.8836 83.3932 61.9869 83.3543 62.0714 83.2984C70.1965 77.2835 77.0276 70.1331 81.4043 60.8661C83.3721 57.8179 80.6055 55.2538 80.3469 52.4427C80.26 51.4059 80.4736 50.376 80.5463 49.3511C81.0393 47.483 82.0138 45.9504 83.4674 44.7182C85.4963 42.5844 88.11 41.8048 91.0127 41.6496C91.0479 41.6484 91.1183 41.6459 91.17 41.6264C91.2569 41.6058 91.3274 41.6033 91.3978 41.6008C91.4683 41.5983 91.5199 41.5789 91.5904 41.5764C91.6608 41.5739 91.7313 41.5714 91.7806 41.5168M45.7959 101.551C46.4347 102.128 47.0923 102.722 47.7311 103.299M45.7959 101.551L47.7311 103.299M47.7311 103.299C47.9143 103.398 48.0622 103.498 48.2454 103.598C48.2478 103.633 48.2665 103.65 48.3206 103.666C49.0322 104.011 49.7625 104.373 50.4741 104.718C51.7353 105.361 53.0692 105.508 54.4242 105.442C55.8662 105.356 56.4885 105.951 56.639 107.409C57.0925 111.553 59.218 114.562 63.2551 116.059C67.1818 117.489 72.1204 116.099 74.8631 112.759C77.526 109.546 77.939 105.953 76.0224 102.107C74.9631 99.9943 72.3328 98.4125 73.7628 95.5067C78.5293 85.7323 85.7925 78.179 94.6738 72.1197C95.8737 71.3195 97.2404 70.108 98.9643 71.5983C102.713 74.8504 107.186 75.2215 110.883 72.6764C114.865 69.9273 116.255 65.1016 114.407 60.4253C112.727 56.1661 108.439 53.5499 103.862 54.0109C102.932 54.0966 102.472 53.8132 102.53 52.8417C102.654 51.0042 102.535 49.2105 101.558 47.5352C100.052 44.0278 95.1505 40.9573 91.9567 41.5106M91.9567 41.5106C91.8863 41.5131 91.8158 41.5155 91.7806 41.5168M91.9567 41.5106L91.7806 41.5168M58.1378 114.512C56.3411 112.46 55.3546 110.116 55.4201 107.399C55.4342 106.817 55.2017 106.772 54.6756 106.826C49.9929 107.291 45.4321 104.825 43.081 100.554C40.5279 95.9028 40.976 89.9293 44.1344 86.2046C47.2787 82.5332 52.0365 81.3432 56.7334 82.9402C60.383 84.1864 62.5715 81.5358 64.7014 79.5923C70.8538 73.9113 76.91 68.1103 80.2794 60.1478C80.857 58.7526 80.8475 57.5543 80.0255 56.0851C78.0643 52.629 78.3435 49.1468 80.4827 46.022C83.2488 41.9762 87.2691 39.7898 92.3042 40.1059C99.2368 40.5489 103.612 45.2595 104.035 52.1188C104.139 53.6663 105.675 52.343 106.447 52.8093C111.424 53.8325 114.843 56.6555 116.025 61.655C117.199 66.5489 115.262 71.1119 111.35 73.5941C107.32 76.1686 103.041 76.0727 99.0067 73.289C98.1189 72.6857 97.6116 71.6989 96.1885 72.5951C88.0399 77.7296 81.7607 84.6842 76.5196 92.6422C74.6927 95.421 73.1923 98.065 76.6729 101.009C77.8331 101.991 78.263 103.668 78.3852 105.232C78.7425 109.785 77.0613 113.422 73.2476 115.795C68.8398 118.524 64.2275 118.722 59.5634 115.766L59.561 115.731L59.5258 115.732C59.0396 115.326 58.5887 114.919 58.1378 114.512Z" stroke="#52003B" stroke-width="3.72248"/>
<path d="M48.2011 94.0151C48.5846 95.5064 50.9142 100.253 49.4863 100.62C48.0584 100.988 44.4538 96.6354 45.9657 90.8209C46.5418 88.6053 49.068 86.2484 50.7579 88.3426C51.5643 89.342 47.1967 90.1103 48.2011 94.0151Z" fill="white"/>
<path d="M85.5559 49.9745C83.9941 53.707 87.0189 57.3097 85.5479 57.2097C84.0769 57.1098 80.9316 52.3005 84.1937 47.2553C85.4366 45.3329 89.6659 43.4339 90.6123 45.953C91.0639 47.1552 86.6603 47.3352 85.5559 49.9745Z" fill="white"/>
<path d="M76.2741 77.7136C74.1209 80.2943 68.5099 85.7458 67.4687 84.2926C66.1674 82.4761 71.2994 79.4846 74.491 75.4764C75.7071 73.9491 80.5515 68.0851 81.9728 69.4405C82.9203 70.3438 77.7863 75.9012 76.2741 77.7136Z" fill="white"/>
<defs>
<filter id="filter0_i_0_289" x="39.5683" y="38.2145" width="78.6582" height="81.5594" filterUnits="userSpaceOnUse" color-interpolation-filters="sRGB">
<feFlood flood-opacity="0" result="BackgroundImageFix"/>
<feBlend mode="normal" in="SourceGraphic" in2="BackgroundImageFix" result="shape"/>
<feColorMatrix in="SourceAlpha" type="matrix" values="0 0 0 0 0 0 0 0 0 0 0 0 0 0 0 0 0 0 127 0" result="hardAlpha"/>
<feOffset dy="2.2888"/>
<feComposite in2="hardAlpha" operator="arithmetic" k2="-1" k3="1"/>
<feColorMatrix type="matrix" values="0 0 0 0 0 0 0 0 0 0 0 0 0 0 0 0 0 0 0.25 0"/>
<feBlend mode="normal" in2="shape" result="effect1_innerShadow_0_289"/>
</filter>
</defs>
</svg>